<svg xmlns="http://www.w3.org/2000/svg" width="120" height="120" viewBox="0 0 31.75 31.75"><path d="M16.14 1.115A14.665 14.665 0 0 0 1.476 15.779 14.665 14.665 0 0 0 16.14 30.444a14.665 14.665 0 0 0 14.665-14.665A14.665 14.665 0 0 0 16.14 1.115Zm4.69 6.924c2.446 0 5.08.557 5.08 1.777V23.13a.39.39 0 0 1-.435.386h-9.289c-.004 0-.004.002-.007.002-.013.002-.025.002-.039.002-.013 0-.026 0-.04-.002l-.006-.002H6.805a.39.39 0 0 1-.434-.386V9.817c0-1.22 2.633-1.776 5.079-1.776l.002-.002c1.88 0 3.869.328 4.69 1.033.82-.705 2.81-1.034 4.689-1.034zm-9.38.78c-1.216 0-2.355.139-3.205.39-.9.267-1.095.552-1.095.608v12.307c.962-.524 2.674-.77 4.3-.77 1.627 0 3.338.246 4.3.77V9.817c0-.056-.194-.341-1.094-.608-.851-.251-1.99-.39-3.206-.39zm9.38 0c-1.217 0-2.356.139-3.206.39-.9.267-1.095.552-1.095.608v12.307c.962-.524 2.674-.77 4.3-.77 1.627 0 3.338.246 4.3.77V9.817c0-.056-.194-.341-1.094-.608-.851-.251-1.99-.39-3.206-.39zm-9.38 1.398c1.172 0 2.305.127 3.192.358a.39.39 0 1 1-.196.753c-.824-.214-1.888-.332-2.996-.332-.392 0-.781.014-1.157.043a.39.39 0 0 1-.06-.776c.396-.03.805-.046 1.217-.046zm9.379 0c1.172 0 2.305.127 3.192.358a.39.39 0 1 1-.196.753c-.824-.214-1.888-.332-2.996-.332-1.107 0-2.171.118-2.996.332a.39.39 0 0 1-.195-.753c.886-.23 2.02-.358 3.191-.358zm-11.882.216a.39.39 0 0 1 .065.771 8.405 8.405 0 0 0-.558.124.39.39 0 0 1-.196-.753c.192-.05.397-.096.61-.136a.525.525 0 0 1 .079-.007zm2.503 1.797c1.172 0 2.305.127 3.192.358a.39.39 0 1 1-.196.753c-.824-.214-1.888-.332-2.996-.332-1.107 0-2.172.118-2.996.332a.39.39 0 0 1-.196-.753c.887-.23 2.02-.358 3.192-.358zm9.38 0c1.171 0 2.304.127 3.19.358a.39.39 0 1 1-.195.753c-.824-.214-1.888-.332-2.996-.332-1.107 0-2.171.118-2.996.332a.39.39 0 0 1-.195-.753c.886-.23 2.02-.358 3.191-.358zm-9.38 2.012c1.172 0 2.305.127 3.192.357a.39.39 0 1 1-.196.754c-.824-.215-1.888-.333-2.996-.333-1.107 0-2.172.118-2.996.333a.39.39 0 0 1-.196-.754c.887-.23 2.02-.357 3.192-.357zm9.38 0c1.171 0 2.304.127 3.19.357a.39.39 0 0 1-.195.754c-.824-.215-1.888-.333-2.996-.333-1.107 0-2.171.118-2.996.333a.39.39 0 0 1-.195-.754c.886-.23 2.02-.357 3.191-.357zm-9.38 2.013c1.172 0 2.305.127 3.192.357a.39.39 0 1 1-.196.754c-.824-.215-1.888-.333-2.996-.333s-2.171.118-2.996.333a.39.39 0 0 1-.196-.754c.887-.23 2.02-.357 3.192-.357zm9.38 0c1.171 0 2.304.127 3.19.357a.39.39 0 1 1-.195.754c-.824-.215-1.888-.333-2.996-.333-1.107 0-2.171.118-2.996.333a.39.39 0 0 1-.195-.754c.886-.23 2.02-.357 3.191-.357zm-9.38 2.013c1.172 0 2.305.127 3.192.357a.39.39 0 1 1-.196.754c-.824-.215-1.888-.333-2.996-.333-1.107 0-2.172.118-2.996.333a.39.39 0 0 1-.196-.754c.887-.23 2.02-.357 3.192-.357zm9.38 0c1.171 0 2.304.127 3.19.357a.39.39 0 1 1-.195.754c-.824-.215-1.888-.333-2.996-.333-1.107 0-2.171.118-2.996.333a.39.39 0 0 1-.195-.754c.886-.23 2.02-.357 3.191-.357zm-9.38 3.864c-1.214 0-2.352.138-3.202.39a4.251 4.251 0 0 0-.59.216h7.584a4.247 4.247 0 0 0-.59-.217c-.85-.251-1.987-.39-3.202-.39zm9.38 0c-1.215 0-2.353.138-3.203.39a4.253 4.253 0 0 0-.59.216h7.584a4.255 4.255 0 0 0-.59-.217c-.85-.251-1.987-.39-3.202-.39z" style="display:inline;fill:#a5101f;fill-opacity:1;stroke:none;stroke-width:.0671231"/></svg>