<svg xmlns="http://www.w3.org/2000/svg" width="120" height="120" viewBox="0 0 31.75 31.75"><path fill="#7289da" d="M27.082.957H4.963a3.392 3.392 0 0 0-3.384 3.4v22.318c0 1.881 1.52 3.4 3.384 3.4h18.719l-.875-3.054 2.113 1.965 1.997 1.848 3.549 3.137V4.358c0-1.882-1.519-3.4-3.384-3.4zm-6.371 21.558s-.595-.71-1.09-1.337c2.163-.61 2.988-1.964 2.988-1.964-.677.445-1.32.759-1.898.974-.826.346-1.618.577-2.394.71a11.563 11.563 0 0 1-4.275-.017c-.94-.182-1.75-.446-2.427-.71a9.674 9.674 0 0 1-1.204-.561c-.05-.033-.1-.05-.15-.083-.032-.016-.049-.033-.065-.05-.297-.164-.462-.28-.462-.28s.792 1.32 2.888 1.948c-.495.627-1.106 1.37-1.106 1.37-3.647-.116-5.034-2.509-5.034-2.509 0-5.315 2.377-9.623 2.377-9.623 2.377-1.783 4.638-1.734 4.638-1.734l.165.199c-2.97.858-4.34 2.162-4.34 2.162s.362-.198.973-.479c1.766-.776 3.17-.99 3.747-1.04.099-.016.182-.033.28-.033a13.967 13.967 0 0 1 3.335-.033c1.568.182 3.252.644 4.968 1.585 0 0-1.304-1.238-4.11-2.096l.231-.265s2.262-.049 4.639 1.734c0 0 2.377 4.308 2.377 9.623 0 0-1.403 2.393-5.051 2.509zm-7.676-7.709c-.94 0-1.684.826-1.684 1.833 0 1.007.76 1.832 1.684 1.832.94 0 1.684-.825 1.684-1.832.016-1.007-.743-1.833-1.684-1.833m6.025 0c-.94 0-1.684.826-1.684 1.833 0 1.007.76 1.832 1.684 1.832.94 0 1.684-.825 1.684-1.832 0-1.007-.743-1.833-1.684-1.833" style="display:inline;fill:#a5101f;fill-opacity:1;stroke-width:.112838"/></svg>