<svg xmlns="http://www.w3.org/2000/svg" width="375" height="375" viewBox="0 0 99.219 99.219"><path d="m68.65 6.25-6.248-2.388.304-3.328ZM77.734 2.972l-3.036 2.252.493-4.134 2.353.188zM73.618 4.75l-2.674-.601s-.936 4.17-.753 4.192c.183.022 4.253 1.221 4.253 1.221l-3.422-2.778ZM78.875 6.552l-.919-1.575-2.35 1.247.138 3.078ZM81.785 1.874l-2.779-.598-.697 3.068Z" style="opacity:.5;fill:none;fill-opacity:1;stroke:#f0f0f5;stroke-width:.0228483;stroke-linecap:butt;stroke-linejoin:miter;stroke-miterlimit:4;stroke-dasharray:none;stroke-opacity:1"/><path d="m68.65 6.25-.91-1.237 2.558-3.225 2.115 1.216-3.762 3.246L62.706.534l3.532-.586 1.502 5.065.91 1.237M73.285 2.406l1.906-1.316-.039-1.984-2.077.59.21 2.71" style="opacity:.5;fill:none;fill-opacity:1;stroke:#f0f0f5;stroke-width:.0228483;stroke-linecap:butt;stroke-linejoin:miter;stroke-miterlimit:4;stroke-dasharray:none;stroke-opacity:1"/><path d="M75.191 1.09c-.092.546-.493 4.134-.493 4.134l-1.08-.475-2.674-.6Z" style="opacity:.5;fill:none;fill-opacity:1;stroke:#f0f0f5;stroke-width:.0228483;stroke-linecap:butt;stroke-linejoin:miter;stroke-miterlimit:4;stroke-dasharray:none;stroke-opacity:1"/><path d="m77.734 2.972.222 2.005-3.258.247 3.036-2.252M79.006 1.276l-1.462.002.19 1.694.575 1.372.697-3.068" style="opacity:.5;fill:none;fill-opacity:1;stroke:#f0f0f5;stroke-width:.0228483;stroke-linecap:butt;stroke-linejoin:miter;stroke-miterlimit:4;stroke-dasharray:none;stroke-opacity:1"/><path d="m81.785 1.874-2.91 4.678-.919-1.575-.222-2.005.575 1.372 3.476-2.47" style="opacity:.5;fill:none;fill-opacity:1;stroke:#f0f0f5;stroke-width:.0228483;stroke-linecap:butt;stroke-linejoin:miter;stroke-miterlimit:4;stroke-dasharray:none;stroke-opacity:1"/><path d="m81.785 1.874 3.066 2.893.51-3.185-1.704.624-1.213-2.56-.486.397zM95.784.307l-4.067 3.44-.675-3.328 2.202 1.212Z" style="opacity:.5;fill:none;fill-opacity:1;stroke:#f0f0f5;stroke-width:.0228483;stroke-linecap:butt;stroke-linejoin:miter;stroke-miterlimit:4;stroke-dasharray:none;stroke-opacity:1"/><path d="m95.784.307-2.54 1.324-1.108-3.818Z" style="opacity:.5;fill:none;fill-opacity:1;stroke:#f0f0f5;stroke-width:.0228483;stroke-linecap:butt;stroke-linejoin:miter;stroke-miterlimit:4;stroke-dasharray:none;stroke-opacity:1"/><path d="M93.244 1.63 91.042.42l-1.028-.663 2.122-1.943 1.108 3.818" style="opacity:.5;fill:none;fill-opacity:1;stroke:#f0f0f5;stroke-width:.0228483;stroke-linecap:butt;stroke-linejoin:miter;stroke-miterlimit:4;stroke-dasharray:none;stroke-opacity:1"/><path d="M91.042.419 87.835 3.49 86.13 1.198l3.885-1.442 1.028.663" style="opacity:.5;fill:none;fill-opacity:1;stroke:#f0f0f5;stroke-width:.0228483;stroke-linecap:butt;stroke-linejoin:miter;stroke-miterlimit:4;stroke-dasharray:none;stroke-opacity:1"/><path d="m90.942 3.78.775-.033-.675-3.328zM90.942 3.78l.1-3.361-3.207 3.071Z" style="opacity:.5;fill:none;fill-opacity:1;stroke:#f0f0f5;stroke-width:.0228483;stroke-linecap:butt;stroke-linejoin:miter;stroke-miterlimit:4;stroke-dasharray:none;stroke-opacity:1"/><path d="m96.493 6.307-.709-6-4.067 3.44 2.457.099 2.32 2.46M96.493 6.307l-.373 2.69-2.841 1.936 2.076-2.385-.75-1.499Z" style="opacity:.5;fill:none;fill-opacity:1;stroke:#f0f0f5;stroke-width:.0228483;stroke-linecap:butt;stroke-linejoin:miter;stroke-miterlimit:4;stroke-dasharray:none;stroke-opacity:1"/><path d="M93.279 10.933 92.076 7.93l3.279.618Z" style="opacity:.5;fill:none;fill-opacity:1;stroke:#f0f0f5;stroke-width:.0228483;stroke-linecap:butt;stroke-linejoin:miter;stroke-miterlimit:4;stroke-dasharray:none;stroke-opacity:1"/><path d="m90.012 10.942 2.064-3.012 3.279.618-.75-1.499-4.416-.264Z" style="opacity:.5;fill:none;fill-opacity:1;stroke:#f0f0f5;stroke-width:.0228483;stroke-linecap:butt;stroke-linejoin:miter;stroke-miterlimit:4;stroke-dasharray:none;stroke-opacity:1"/><path d="m91.527 11.946 4.593-2.95-2.841 1.937-1.203-3.003-2.064 3.012Z" style="opacity:.5;fill:none;fill-opacity:1;stroke:#f0f0f5;stroke-width:.0228483;stroke-linecap:butt;stroke-linejoin:miter;stroke-miterlimit:4;stroke-dasharray:none;stroke-opacity:1"/><path d="m91.527 11.946-4.503.052.91-2.547 1.387 2.003.69-.512z" style="opacity:.5;fill:none;fill-opacity:1;stroke:#f0f0f5;stroke-width:.0228483;stroke-linecap:butt;stroke-linejoin:miter;stroke-miterlimit:4;stroke-dasharray:none;stroke-opacity:1"/><path d="m90.012 10.942.177-4.157-2.255 2.666 1.387 2.003ZM87.934 9.45 85.25 8.194l2.085-.983 2.853-.425ZM87.024 11.998l-2.182-2.062 3.092-.485Z" style="opacity:.5;fill:none;fill-opacity:1;stroke:#f0f0f5;stroke-width:.0228483;stroke-linecap:butt;stroke-linejoin:miter;stroke-miterlimit:4;stroke-dasharray:none;stroke-opacity:1"/><path d="m82.992 11.597-3.499.438 1.566-3.908 3.783 1.809-1.85 1.66" style="opacity:.5;fill:none;fill-opacity:1;stroke:#f0f0f5;stroke-width:.0228483;stroke-linecap:butt;stroke-linejoin:miter;stroke-miterlimit:4;stroke-dasharray:none;stroke-opacity:1"/><path d="m85.25 8.193-.408 1.743 3.092-.485-2.683-1.258-1.912-1.476-2.28 1.41 3.783 1.809.409-1.743.123-2.218 1.357.49.605.745-2.085.983" style="opacity:.5;fill:none;fill-opacity:1;stroke:#f0f0f5;stroke-width:.0228483;stroke-linecap:butt;stroke-linejoin:miter;stroke-miterlimit:4;stroke-dasharray:none;stroke-opacity:1"/><path d="m87.336 7.21-.605-.744 3.458.32ZM85.374 5.975 81.875 4.55l-2.887 3.38 3.439-1.619.912.407 1.912 1.476.123-2.218" style="opacity:.5;fill:none;fill-opacity:1;stroke:#f0f0f5;stroke-width:.0228483;stroke-linecap:butt;stroke-linejoin:miter;stroke-miterlimit:4;stroke-dasharray:none;stroke-opacity:1"/><path d="m83.34 6.717-2.28 1.41-2.072-.199 3.439-1.618ZM81.875 4.549l-.09-2.675 3.066 2.893.523 1.208z" style="opacity:.5;fill:none;fill-opacity:1;stroke:#f0f0f5;stroke-width:.0228483;stroke-linecap:butt;stroke-linejoin:miter;stroke-miterlimit:4;stroke-dasharray:none;stroke-opacity:1"/><path d="m87.722 4.323.113-.833-1.706-2.292-1.278 3.57Z" style="opacity:.5;fill:none;fill-opacity:1;stroke:#f0f0f5;stroke-width:.0228483;stroke-linecap:butt;stroke-linejoin:miter;stroke-miterlimit:4;stroke-dasharray:none;stroke-opacity:1"/><path d="m86.129 1.198-.768.384-.51 3.185 1.278-3.569M81.785 1.874l.09 2.675-3 2.003 2.91-4.678" style="opacity:.5;fill:none;fill-opacity:1;stroke:#f0f0f5;stroke-width:.0228483;stroke-linecap:butt;stroke-linejoin:miter;stroke-miterlimit:4;stroke-dasharray:none;stroke-opacity:1"/><path d="m81.875 4.549-2.887 3.38-3.244 1.373 3.13-2.75Z" style="opacity:.5;fill:none;fill-opacity:1;stroke:#f0f0f5;stroke-width:.0228483;stroke-linecap:butt;stroke-linejoin:miter;stroke-miterlimit:4;stroke-dasharray:none;stroke-opacity:1"/><path d="m81.06 8.127-2.072-.199.505 4.107ZM75.605 6.224l-.907-1-1.08-.475-2.596 2.035ZM90.147 14.077l3.762 4.486 2.512-4.627-.301-4.94-4.593 2.95-1.38 2.131M5.373-2.678l2.012 4.686L5.263 3.95l-1.37-5.917ZM7.385 2.008l3.648 2.494L8.365.216l3.716-2.565-4.019-.961Z" style="opacity:.5;fill:none;fill-opacity:1;stroke:#f0f0f5;stroke-width:.0228483;stroke-linecap:butt;stroke-linejoin:miter;stroke-miterlimit:4;stroke-dasharray:none;stroke-opacity:1"/><path d="m12.081-2.35-1.048 6.852L8.365.216Z" style="opacity:.5;fill:none;fill-opacity:1;stroke:#f0f0f5;stroke-width:.0228483;stroke-linecap:butt;stroke-linejoin:miter;stroke-miterlimit:4;stroke-dasharray:none;stroke-opacity:1"/><path d="m11.033 4.502-2.54 1.323-1.108-3.817Z" style="opacity:.5;fill:none;fill-opacity:1;stroke:#f0f0f5;stroke-width:.0228483;stroke-linecap:butt;stroke-linejoin:miter;stroke-miterlimit:4;stroke-dasharray:none;stroke-opacity:1"/><path d="M8.494 5.825 6.292 4.613l-1.029-.662 2.122-1.943 1.109 3.817" style="opacity:.5;fill:none;fill-opacity:1;stroke:#f0f0f5;stroke-width:.0228483;stroke-linecap:butt;stroke-linejoin:miter;stroke-miterlimit:4;stroke-dasharray:none;stroke-opacity:1"/><path d="M5.686 46.296 7.31 41.05l-3.733 1.282-.254 3.118 2.364.846" style="opacity:.5;fill:none;fill-opacity:1;stroke:#f0f0f5;stroke-width:7.99693e-07;stroke-linecap:butt;stroke-linejoin:miter;stroke-miterlimit:4;stroke-dasharray:none;stroke-opacity:1"/><path d="m6.449 35.276-2.536 5.28 2.677-.502s3.462 2.599 3.55 2.384c.088-.215-3.691-7.162-3.691-7.162z" style="opacity:.5;fill:none;fill-opacity:1;stroke:#f0f0f5;stroke-width:.0228483;stroke-linecap:butt;stroke-linejoin:miter;stroke-miterlimit:4;stroke-dasharray:none;stroke-opacity:1"/><path d="m7.309 41.05-.719-.996-3.014 2.278 3.733-1.282" style="opacity:.5;fill:none;fill-opacity:1;stroke:#f0f0f5;stroke-width:7.99693e-07;stroke-linecap:butt;stroke-linejoin:miter;stroke-miterlimit:4;stroke-dasharray:none;stroke-opacity:1"/><path d="m6.59 40.054 3.55 2.353s-.98 1.634-1.047 1.33c-.066-.304-1.784-2.687-1.784-2.687z" style="opacity:.5;fill:none;fill-opacity:1;stroke:#f0f0f5;stroke-width:.0228483;stroke-linecap:butt;stroke-linejoin:miter;stroke-miterlimit:4;stroke-dasharray:none;stroke-opacity:1"/><path d="m9.063 43.768-3.377 2.528L7.31 41.05Z" style="opacity:.5;fill:none;fill-opacity:1;stroke:#f0f0f5;stroke-width:.0228483;stroke-linecap:butt;stroke-linejoin:miter;stroke-miterlimit:4;stroke-dasharray:none;stroke-opacity:1"/><path d="m5.686 46.296 2.523 3.041-5.92 1.899z" style="opacity:.5;fill:none;fill-opacity:1;stroke:#f0f0f5;stroke-width:7.99693e-07;stroke-linecap:butt;stroke-linejoin:miter;stroke-miterlimit:4;stroke-dasharray:none;stroke-opacity:1"/><path d="m8.541 54.673 2.544-1.232-2.008-1.432-2.369.74 1.833 1.924" style="opacity:.5;fill:none;fill-opacity:1;stroke:#f0f0f5;stroke-width:.0228483;stroke-linecap:butt;stroke-linejoin:miter;stroke-miterlimit:4;stroke-dasharray:none;stroke-opacity:1"/><path d="m9.077 52.009-2.369.74 1.5-3.412.869 2.672 3.905-1.988-1.897 3.42-2.008-1.432M3.456 83.282l5.656.497-1.63 4.125zM-2.47 88.88l-1.346 3.418s4.096-.141 4.13-.29c.035-.147.056-3.323.056-3.323zM12.906 92.244l-2.01 6.849-2.972-1.073zM18.921 85.39l3.831 1.745-1.282 2.827-3.532-1.493 2.725-.45zM3.34 54.062l-3.383 3.046 5.158 1.65zM-6.656 94.671l1.46 3.446 5.641.628zM-.462 94.2l2.004-1.584.966 2.605zM3.727 90.808l-.719 1.156 1.449.53.045-1.736zM8.03 56.42l1.74 2.52 2.7.287.197-3.695zM8.449 90.582l-1.853 4.055 5.07-1.487zM17.442 91.948l-3.425 2.714 6.02 4.446 1.494-3.24-3.816-.824z" style="opacity:.5;fill:none;fill-opacity:1;stroke:#f0f0f5;stroke-width:.0228483;stroke-linecap:butt;stroke-linejoin:miter;stroke-miterlimit:4;stroke-dasharray:none;stroke-opacity:1"/><path d="m12.982 50.021 1.136 4.043-2.306 1.004-.727-1.627zM9.317 47.03c-.01-.574-.254-3.262-.254-3.262l-3.377 2.528 2.523 3.041zM6.449 35.276l3.496 1.563.116 2.309.078 3.26zM12.79 39.977l2.888-6.535-5.733 3.397.129 2.295zM20.037 99.108l-5.462-1.002-.558-3.444zM12.906 92.244l-1.24.906-3.217-2.568 1.223-2.11 3.234 3.772-4.982 5.776-1.328-3.383 5.07-1.487 1.24-.906M6.596 94.637l-2.14-2.143.046-1.736 3.947-.176-1.853 4.055" style="opacity:.5;fill:none;fill-opacity:1;stroke:#f0f0f5;stroke-width:.0228483;stroke-linecap:butt;stroke-linejoin:miter;stroke-miterlimit:4;stroke-dasharray:none;stroke-opacity:1"/><path d="m4.502 90.758 2.143-2.14 1.804 1.964z" style="opacity:.5;fill:none;fill-opacity:1;stroke:#f0f0f5;stroke-width:.0228483;stroke-linecap:butt;stroke-linejoin:miter;stroke-miterlimit:4;stroke-dasharray:none;stroke-opacity:1"/><path d="m6.645 88.619.837-.715 2.19.568-1.223 2.11zM7.482 87.904l1.63-4.125.578 3.719-.018.974z" style="opacity:.5;fill:none;fill-opacity:1;stroke:#f0f0f5;stroke-width:.0228483;stroke-linecap:butt;stroke-linejoin:miter;stroke-miterlimit:4;stroke-dasharray:none;stroke-opacity:1"/><path d="m9.69 87.498 3.701-3.9-1.47-1.194-1.199 3.283-1.61-1.908.578 3.719" style="opacity:.5;fill:none;fill-opacity:1;stroke:#f0f0f5;stroke-width:.0228483;stroke-linecap:butt;stroke-linejoin:miter;stroke-miterlimit:4;stroke-dasharray:none;stroke-opacity:1"/><path d="m10.227 81.989-1.115 1.79 1.61 1.908 1.199-3.283-1.694-.415M17.464 55.914l-1.305 1.562 1.606 2.427 1.581-2.245zM16.159 57.476l-2.003.477 1.345.787z" style="opacity:.5;fill:none;fill-opacity:1;stroke:#f0f0f5;stroke-width:.0228483;stroke-linecap:butt;stroke-linejoin:miter;stroke-miterlimit:4;stroke-dasharray:none;stroke-opacity:1"/><path d="m15.84 57.116-1.684.837-2.344-2.885 2.306-1.004z" style="opacity:.5;fill:none;fill-opacity:1;stroke:#f0f0f5;stroke-width:.0228483;stroke-linecap:butt;stroke-linejoin:miter;stroke-miterlimit:4;stroke-dasharray:none;stroke-opacity:1"/><path d="m15.84 57.116.319.36-2.003.477zM15.554 52.5l-.78-1.423-1.792-1.056 1.136 4.043zM3.727 90.808 1.43 90.5.37 88.685l1.466-.651 1.891 2.774" style="opacity:.5;fill:none;fill-opacity:1;stroke:#f0f0f5;stroke-width:.0228483;stroke-linecap:butt;stroke-linejoin:miter;stroke-miterlimit:4;stroke-dasharray:none;stroke-opacity:1"/><path d="m3.727 90.808.775-.05 2.143-2.14-4.81-.584zM3.727 90.808l-.719 1.156-2.688.055L1.43 90.5Z" style="opacity:.5;fill:none;fill-opacity:1;stroke:#f0f0f5;stroke-width:.0228483;stroke-linecap:butt;stroke-linejoin:miter;stroke-miterlimit:4;stroke-dasharray:none;stroke-opacity:1"/><path d="M1.43 90.5.37 88.685.32 92.02zM-3.13 87.821l-.423 1.221-.263 3.256 1.347-3.418z" style="opacity:.5;fill:none;fill-opacity:1;stroke:#f0f0f5;stroke-width:.0228483;stroke-linecap:butt;stroke-linejoin:miter;stroke-miterlimit:4;stroke-dasharray:none;stroke-opacity:1"/><path d="m-3.553 89.042-1.069.122-2.196 2.96 1.467 1.085 1.535-.91z" style="opacity:.5;fill:none;fill-opacity:1;stroke:#f0f0f5;stroke-width:7.99693e-07;stroke-linecap:butt;stroke-linejoin:miter;stroke-miterlimit:4;stroke-dasharray:none;stroke-opacity:1"/><path d="m-1.718 80.746-2.056.68.66 1.927s3.102-1.01 3.1-1.103c0-.092-1.704-1.504-1.704-1.504z" style="opacity:.5;fill:none;fill-opacity:1;stroke:#f0f0f5;stroke-width:.0228483;stroke-linecap:butt;stroke-linejoin:miter;stroke-miterlimit:4;stroke-dasharray:none;stroke-opacity:1"/><path d="m-1.718 80.746-.568-.877-1.488 1.557 2.056-.68" style="opacity:.5;fill:none;fill-opacity:1;stroke:#f0f0f5;stroke-width:.0228483;stroke-linecap:butt;stroke-linejoin:miter;stroke-miterlimit:4;stroke-dasharray:none;stroke-opacity:1"/><path d="m-2.286 79.87-1.055-1.312-1.445.78 1.012 2.088zM-3.217 54.945l-.309 3.623 1.995.096-1.686-3.719M1.266 82.58l-.675-1.816-.629 1.446 1.002 2.22z" style="opacity:.5;fill:none;fill-opacity:1;stroke:#f0f0f5;stroke-width:.0228483;stroke-linecap:butt;stroke-linejoin:miter;stroke-miterlimit:4;stroke-dasharray:none;stroke-opacity:1"/><path d="m.591 80.764-2.877-.895.568.877 1.68 1.464zM2.873 81.52l.5 3.461-2.107-2.401-.675-1.816ZM5.115 58.758l2.852-1.336-2.436-2.074-.528 1.21-1.663-2.496 1.775 4.696M16.65 63.55l-1.741-1.12.592-3.69 1.271 2.72z" style="opacity:.5;fill:none;fill-opacity:1;stroke:#f0f0f5;stroke-width:.0228483;stroke-linecap:butt;stroke-linejoin:miter;stroke-miterlimit:4;stroke-dasharray:none;stroke-opacity:1"/><path d="m16.772 61.46.993-1.557-1.606-2.427-.658 1.264 1.271 2.72M16.65 63.55l-1.741-1.12-1.103 1.193 2.5 1.073zM5.53 55.348l2.437 2.074 1.803 1.517-1.74-2.518ZM5.724 80.184l.21 3.259-2.478-.161-.583-1.763zM7.527 81.701l-.521 1.829-1.072-.087-.21-3.26z" style="opacity:.5;fill:none;fill-opacity:1;stroke:#f0f0f5;stroke-width:.0228483;stroke-linecap:butt;stroke-linejoin:miter;stroke-miterlimit:4;stroke-dasharray:none;stroke-opacity:1"/><path d="m10.227 81.989-1.115 1.79-2.106-.25.521-1.828 2.7.288M21.53 95.867l2.94-1.987-1.678-2.113-1.272 2.347-2.773-1.376.729 1.631z" style="opacity:.5;fill:none;fill-opacity:1;stroke:#f0f0f5;stroke-width:.0228483;stroke-linecap:butt;stroke-linejoin:miter;stroke-miterlimit:4;stroke-dasharray:none;stroke-opacity:1"/><path d="m18.747 92.738-1.305-.79.273 3.096 3.816.823-2.055-1.498zM18.747 92.738l1.74-1.967-2.733-1.154-.312 2.33z" style="opacity:.5;fill:none;fill-opacity:1;stroke:#f0f0f5;stroke-width:.0228483;stroke-linecap:butt;stroke-linejoin:miter;stroke-miterlimit:4;stroke-dasharray:none;stroke-opacity:1"/><path d="m20.487 90.771 2.305.996-1.272 2.347-2.773-1.376zM18.234 85.124l.687.265 1.742 2.63-2.725.45zM17.754 89.617l3.716.345-3.532-1.493z" style="opacity:.5;fill:none;fill-opacity:1;stroke:#f0f0f5;stroke-width:.0228483;stroke-linecap:butt;stroke-linejoin:miter;stroke-miterlimit:4;stroke-dasharray:none;stroke-opacity:1"/><path d="m21.47 89.962 1.322 1.805-2.305-.996-2.733-1.154 3.716.345M18.106 40.671l1.165-5.008-2.954 4.022-.64-6.243-2.888 6.535z" style="opacity:.5;fill:none;fill-opacity:1;stroke:#f0f0f5;stroke-width:.0228483;stroke-linecap:butt;stroke-linejoin:miter;stroke-miterlimit:4;stroke-dasharray:none;stroke-opacity:1"/><path d="m24.81 89.148-.945-1.133-2.395 1.947 1.322 1.805z" style="opacity:.5;fill:none;fill-opacity:1;stroke:#f0f0f5;stroke-width:.0228483;stroke-linecap:butt;stroke-linejoin:miter;stroke-miterlimit:4;stroke-dasharray:none;stroke-opacity:1"/><path d="m23.865 88.015 3.095-.664-1.497-1.32-2.71 1.104-1.283 2.827zM22.621 82.28l-1.967 1.862-2.42.982.687.265 3.831 1.746-.13-4.855" style="opacity:.5;fill:none;fill-opacity:1;stroke:#f0f0f5;stroke-width:.0228483;stroke-linecap:butt;stroke-linejoin:miter;stroke-miterlimit:4;stroke-dasharray:none;stroke-opacity:1"/><path d="m26.96 87.35-3.095.665.945 1.133 2.472 2.896-.322-4.693 3.04.025L28.7 83.76l-3.236 2.271 1.497 1.32M24.47 93.88l-2.94 1.987 1.796-.142 2.89-.083z" style="opacity:.5;fill:none;fill-opacity:1;stroke:#f0f0f5;stroke-width:.0228483;stroke-linecap:butt;stroke-linejoin:miter;stroke-miterlimit:4;stroke-dasharray:none;stroke-opacity:1"/><path d="m-6.656 94.671 4.501.026-1.66-2.399-1.536.911-1.467-1.085.162 2.547" style="opacity:.5;fill:none;fill-opacity:1;stroke:#f0f0f5;stroke-width:7.99693e-07;stroke-linecap:butt;stroke-linejoin:miter;stroke-miterlimit:4;stroke-dasharray:none;stroke-opacity:1"/><path d="m-2.155 94.697 2.6 4.048-7.101-4.074Z" style="opacity:.5;fill:none;fill-opacity:1;stroke:#f0f0f5;stroke-width:.0228483;stroke-linecap:butt;stroke-linejoin:miter;stroke-miterlimit:4;stroke-dasharray:none;stroke-opacity:1"/><path d="m-.462 94.2.907 4.545 2.063-3.524-2.97-1.021M-.462 94.2l.782-2.18 1.222.596L-.462 94.2" style="opacity:.5;fill:none;fill-opacity:1;stroke:#f0f0f5;stroke-width:.0228483;stroke-linecap:butt;stroke-linejoin:miter;stroke-miterlimit:4;stroke-dasharray:none;stroke-opacity:1"/><path d="m-.462 94.2-3.354-1.902L.32 92.02l-.782 2.18" style="opacity:.5;fill:none;fill-opacity:1;stroke:#f0f0f5;stroke-width:.0228483;stroke-linecap:butt;stroke-linejoin:miter;stroke-miterlimit:4;stroke-dasharray:none;stroke-opacity:1"/><path d="m-.462 94.2-1.693.497-1.66-2.399L-.463 94.2M-2.155 94.697l2.6 4.048-.907-4.545-1.693.497M7.924 98.02l-1.328-3.383-.822 1.208zM5.774 95.845l-3.266-.624.46 2.12z" style="opacity:.5;fill:none;fill-opacity:1;stroke:#f0f0f5;stroke-width:.0228483;stroke-linecap:butt;stroke-linejoin:miter;stroke-miterlimit:4;stroke-dasharray:none;stroke-opacity:1"/><path d="m2.508 95.221 1.949-2.727 2.14 2.143-.823 1.208-3.266-.624" style="opacity:.5;fill:none;fill-opacity:1;stroke:#f0f0f5;stroke-width:.0228483;stroke-linecap:butt;stroke-linejoin:miter;stroke-miterlimit:4;stroke-dasharray:none;stroke-opacity:1"/><path d="m2.508 95.221-.966-2.605 1.466-.652 1.449.53zM-5.517 94.951l1.298.606 1.531-.712-2.829.106M-3.522 7.932l1.136-2.75 1.96-2.026-.837 3.004-2.26 1.772.532 1.13 3.214.235-1.486-3.137-2.26 1.772M6.449 35.276l3.496 1.563-.656-3.936-1.535.911-1.467-1.085.162 2.547M15.678 33.442l-6.389-.539 4.136-.279 2.253.818M15.678 33.442l-5.733 3.397-.656-3.936 6.389.539M66.87 98.884l.479-3.749-4.74-.621.235 1.902zM59.62 95.296l2.989-.782.59-2.28-3.886-3.287s.915 2.688.913 2.86c-.003.173-.605 3.49-.605 3.49z" style="opacity:.5;fill:none;fill-opacity:1;stroke:#f0f0f5;stroke-width:.0228483;stroke-linecap:butt;stroke-linejoin:miter;stroke-miterlimit:4;stroke-dasharray:none;stroke-opacity:1"/><path d="m62.844 96.416-3.223-1.12 2.988-.782.235 1.902M61.886 97.095l.18 2.82 4.804-1.03-4.026-2.469zM61.886 97.095l-2.265-1.799 3.223 1.12zM55.708 97.491l3.913-2.195-.087 3.409-4.66.524z" style="opacity:.5;fill:none;fill-opacity:1;stroke:#f0f0f5;stroke-width:.0228483;stroke-linecap:butt;stroke-linejoin:miter;stroke-miterlimit:4;stroke-dasharray:none;stroke-opacity:1"/><path d="m59.534 98.705 2.532 1.21-.18-2.82-2.265-1.799z" style="opacity:.5;fill:none;fill-opacity:1;stroke:#f0f0f5;stroke-width:.0228483;stroke-linecap:butt;stroke-linejoin:miter;stroke-miterlimit:4;stroke-dasharray:none;stroke-opacity:1"/><path d="m59.313 88.947-5.634 1.742 3.698 1.126 2.244 3.481.573-3.5-.881-2.849M65.612 89.156c-.046.216 1.737 5.979 1.737 5.979l-4.74-.621.59-2.28ZM59.313 88.947s-5.536-2.737-5.535-2.859c.002-.122-1.445-6.397-1.445-6.397l3.737 3.77zM50.976 88.036l-.063 7.447-1.711-4.692z" style="opacity:.5;fill:none;fill-opacity:1;stroke:#f0f0f5;stroke-width:.0228483;stroke-linecap:butt;stroke-linejoin:miter;stroke-miterlimit:4;stroke-dasharray:none;stroke-opacity:1"/><path d="m50.913 95.483 4.196-1.168-2.437-2.839-1.76 4.007" style="opacity:.5;fill:none;fill-opacity:1;stroke:#f0f0f5;stroke-width:.0228483;stroke-linecap:butt;stroke-linejoin:miter;stroke-miterlimit:4;stroke-dasharray:none;stroke-opacity:1"/><path d="m52.672 91.476-1.76-.755v4.762M55.109 94.315l4.512.981-2.244-3.481zM55.109 94.315l.6 3.176 3.912-2.195z" style="opacity:.5;fill:none;fill-opacity:1;stroke:#f0f0f5;stroke-width:.0228483;stroke-linecap:butt;stroke-linejoin:miter;stroke-miterlimit:4;stroke-dasharray:none;stroke-opacity:1"/><path d="m50.913 95.483 4.795 2.008-.833 1.738-1.832-1.176-2.13-2.57 4.795 2.008-.6-3.176-4.195 1.168-2.056-1.583-3.08 2.19 2.692-.425.59 1.656 1.854-1.838" style="opacity:.5;fill:none;fill-opacity:1;stroke:#f0f0f5;stroke-width:.0228483;stroke-linecap:butt;stroke-linejoin:miter;stroke-miterlimit:4;stroke-dasharray:none;stroke-opacity:1"/><path d="m49.058 97.321 3.985.732-2.13-2.57-1.855 1.838" style="opacity:.5;fill:none;fill-opacity:1;stroke:#f0f0f5;stroke-width:.0228483;stroke-linecap:butt;stroke-linejoin:miter;stroke-miterlimit:4;stroke-dasharray:none;stroke-opacity:1"/><path d="m49.058 97.321-2.066 3.04 6.051-2.308-3.985-.732M41.932 100.13l-7.039-1.23.187-3.044 2.316 2.152 1.523-.7zM38.902 93.197l2.13-2.114.386 3.106z" style="opacity:.5;fill:none;fill-opacity:1;stroke:#f0f0f5;stroke-width:.0228483;stroke-linecap:butt;stroke-linejoin:miter;stroke-miterlimit:4;stroke-dasharray:none;stroke-opacity:1"/><path d="m38.902 93.197-1.338-2.213 1.868-1.804 1.6 1.903-2.13 2.114M31.644 90.978l5.078 5.274.842-5.268z" style="opacity:.5;fill:none;fill-opacity:1;stroke:#f0f0f5;stroke-width:.0228483;stroke-linecap:butt;stroke-linejoin:miter;stroke-miterlimit:4;stroke-dasharray:none;stroke-opacity:1"/><path d="m38.902 93.197-2.18 3.055.842-5.268zM35.05 99.96l-3.406-8.982 5.078 5.274-1.671 3.707M26.779 13.913s2.711-5.549 2.833-5.548c.122.001 6.39-1.475 6.39-1.475l-3.753 3.755zM7.99 22.43.543 22.4l4.683-1.732Z" style="opacity:.5;fill:none;fill-opacity:1;stroke:#f0f0f5;stroke-width:.0228483;stroke-linecap:butt;stroke-linejoin:miter;stroke-miterlimit:4;stroke-dasharray:none;stroke-opacity:1"/><path d="m5.226 20.668.904-2.343 1.86 4.105ZM24.097 2.82l-1.573 2.062 4.683-1.733-3.11-.33M15.417 4.056 13.431 8.86l-1.165-.01-.108-5.554 3.26.759L13.43 8.86l3.174-.615-1.188-4.19 1.573-2.063-2.203-3.07.436 2.69-1.653.597 1.847 1.846" style="opacity:.5;fill:none;fill-opacity:1;stroke:#f0f0f5;stroke-width:.0228483;stroke-linecap:butt;stroke-linejoin:miter;stroke-miterlimit:4;stroke-dasharray:none;stroke-opacity:1"/><path d="m13.57 2.21-1.412 1.087 3.26.759L13.57 2.21" style="opacity:.5;fill:none;fill-opacity:1;stroke:#f0f0f5;stroke-width:.0228483;stroke-linecap:butt;stroke-linejoin:miter;stroke-miterlimit:4;stroke-dasharray:none;stroke-opacity:1"/><path d="m13.57 2.21-1.489-4.56-1.048 6.852L13.57 2.21M38.128 7.787l.262-2.803 1.293 2.206zM40.004 4.055l1.69.826 1.866-2.495L42.206.972zM46.524 3.425S47.043.79 46.84.806c-.203.017-2.703.994-2.703.994l-.577.586zM8.175 25.543l1.444-1.02 1.24-3.533-3.753 3.754Z" style="opacity:.5;fill:none;fill-opacity:1;stroke:#f0f0f5;stroke-width:.0228483;stroke-linecap:butt;stroke-linejoin:miter;stroke-miterlimit:4;stroke-dasharray:none;stroke-opacity:1"/><path d="m42.206.972 1.354 1.414.577-.586-2.004-3.19zM58.896 1.771l.961 6.672-1.77-3.903-2.672-1.394 3.48-1.375M39.683 7.19l2.295 1.495-1.747-3.077-1.84-.624ZM49.351 4.39l-1.27-1.783 4.784.638ZM46.524 3.425l.596 3.899.96-4.717L46.81.824ZM58.896 1.771l3.81-1.237-1.331-2.639-3.288-1.15.809 5.026 3.506 2.091.304-3.328M61.629 6.813l.776-.35.397 6.51-.305-1.452-.945-2.99Z" style="opacity:.5;fill:none;fill-opacity:1;stroke:#f0f0f5;stroke-width:.0228483;stroke-linecap:butt;stroke-linejoin:miter;stroke-miterlimit:4;stroke-dasharray:none;stroke-opacity:1"/><path d="m60.996 3.742-2.1-1.97 3.506 2.09Z" style="opacity:.5;fill:none;fill-opacity:1;stroke:#f0f0f5;stroke-width:.0228483;stroke-linecap:butt;stroke-linejoin:miter;stroke-miterlimit:4;stroke-dasharray:none;stroke-opacity:1"/><path d="m60.996 3.742-.756.957-.917.313-.427-3.24 2.1 1.97M93.865 57.704l3.516-1.28-.672-5.047z" style="opacity:.5;fill:none;fill-opacity:1;stroke:#f0f0f5;stroke-width:.0228483;stroke-linecap:butt;stroke-linejoin:miter;stroke-miterlimit:4;stroke-dasharray:none;stroke-opacity:1"/><path d="m94.122 53.21 2.587-1.833-2.844 6.327zM90.086 24.013l5.016 2.965-1.002-6.541z" style="opacity:.5;fill:none;fill-opacity:1;stroke:#f0f0f5;stroke-width:.0228483;stroke-linecap:butt;stroke-linejoin:miter;stroke-miterlimit:4;stroke-dasharray:none;stroke-opacity:1"/><path d="m97.438 29.097-3.641 2.418 3.934 2.241 3.452-.411-2.688-1.887z" style="fill:none;fill-opacity:1;stroke:#f0f0f5;stroke-width:.0228483;stroke-linecap:butt;stroke-linejoin:miter;stroke-miterlimit:4;stroke-dasharray:none;stroke-opacity:1"/><path d="m97.73 33.756-5.167 1.497 1.234-3.738zM93.797 31.515l3.64-2.418-2.335-2.119-2.209 2.034.904 2.503M89.986 24.982l.1-.969 5.016 2.965-2.209 2.034zM89.538 89.005 87.71 85.71l-2.513 2.32zM83.137 90.23l-3.301-1.612s-.184 4.093-.039 4.14c.146.045 3.309.318 3.309.318zM94.873 94.74l-2.768-3.614-2.053 5.012zM95.793 82.445l-1.282 5.689-3.587-.595zM80.724 96.255l-1.095-.808-.643 1.402 1.727.182zM85.64 94.53l-2 .059-.964 4.747 3.042-1.917zM88.722 91.986l-2.012-2.123-2.077 2.458zM89.122 94.452l-1.821-.447-.74 2.358zM94.038 80.06l-.415 2.785-1.17-2.274zM95.686 79.442l.107 3.003-1.755-2.385z" style="opacity:.5;fill:none;fill-opacity:1;stroke:#f0f0f5;stroke-width:.0228483;stroke-linecap:butt;stroke-linejoin:miter;stroke-miterlimit:4;stroke-dasharray:none;stroke-opacity:1"/><path d="m93.623 82.845-.264 1.26 2.434-1.66-1.755-2.385z" style="opacity:.5;fill:none;fill-opacity:1;stroke:#f0f0f5;stroke-width:.0228483;stroke-linecap:butt;stroke-linejoin:miter;stroke-miterlimit:4;stroke-dasharray:none;stroke-opacity:1"/><path d="m93.36 84.104-1.633-1.1.092-.883 1.804.724-.264 1.26M93.36 84.104l-2.436 3.435 4.87-5.094z" style="opacity:.5;fill:none;fill-opacity:1;stroke:#f0f0f5;stroke-width:.0228483;stroke-linecap:butt;stroke-linejoin:miter;stroke-miterlimit:4;stroke-dasharray:none;stroke-opacity:1"/><path d="m93.36 84.104-1.398-.42-1.038 3.855 2.435-3.435" style="opacity:.5;fill:none;fill-opacity:1;stroke:#f0f0f5;stroke-width:.0228483;stroke-linecap:butt;stroke-linejoin:miter;stroke-miterlimit:4;stroke-dasharray:none;stroke-opacity:1"/><path d="m91.962 83.684-.235-.68 1.632 1.1zM91.727 83.003l.092-.882-3.856-1.018s-1.039 1.82-.857 1.869c.182.048 3.212-.205 3.212-.205zM97.661 86.51s-1.782-.766-1.86-.783c-.077-.018 1.613-1.311 1.613-1.311l1.768-.674-1.52 2.768M97.414 84.416l-1.62-1.971-.108-3.003 1.213.114.515 4.86" style="opacity:.5;fill:none;fill-opacity:1;stroke:#f0f0f5;stroke-width:.0228483;stroke-linecap:butt;stroke-linejoin:miter;stroke-miterlimit:4;stroke-dasharray:none;stroke-opacity:1"/><path d="m95.802 85.714-.009-3.27 1.62 1.972z" style="opacity:.5;fill:none;fill-opacity:1;stroke:#f0f0f5;stroke-width:.0228483;stroke-linecap:butt;stroke-linejoin:miter;stroke-miterlimit:4;stroke-dasharray:none;stroke-opacity:1"/><path d="m95.802 85.714-1.29 2.42 1.281-5.69.01 3.27" style="opacity:.5;fill:none;fill-opacity:1;stroke:#f0f0f5;stroke-width:.0228483;stroke-linecap:butt;stroke-linejoin:miter;stroke-miterlimit:4;stroke-dasharray:none;stroke-opacity:1"/><path d="m94.793 89.507-.282-1.373 1.291-2.42 1.86.796z" style="opacity:.5;fill:none;fill-opacity:1;stroke:#f0f0f5;stroke-width:.0228483;stroke-linecap:butt;stroke-linejoin:miter;stroke-miterlimit:4;stroke-dasharray:none;stroke-opacity:1"/><path d="m98.08 89.817-3.287-.31 2.868-2.997.419 3.307M98.08 89.817l-1.996 2.661-1.02-1.463-1.353.935 1.082-2.443zM80.724 96.255l.49-2.265 1.892-.914.534 1.513-2.916 1.666" style="opacity:.5;fill:none;fill-opacity:1;stroke:#f0f0f5;stroke-width:.0228483;stroke-linecap:butt;stroke-linejoin:miter;stroke-miterlimit:4;stroke-dasharray:none;stroke-opacity:1"/><path d="m80.724 96.255-.011.776 1.963 2.305.964-4.747zM80.724 96.255l-1.095-.808.158-2.685 1.426 1.228z" style="opacity:.5;fill:none;fill-opacity:1;stroke:#f0f0f5;stroke-width:.0228483;stroke-linecap:butt;stroke-linejoin:miter;stroke-miterlimit:4;stroke-dasharray:none;stroke-opacity:1"/><path d="m81.213 93.99 1.893-.914-3.32-.314zM84.633 92.321l-1.527.755.534 1.513 2-.06-1.007-2.208" style="opacity:.5;fill:none;fill-opacity:1;stroke:#f0f0f5;stroke-width:.0228483;stroke-linecap:butt;stroke-linejoin:miter;stroke-miterlimit:4;stroke-dasharray:none;stroke-opacity:1"/><path d="m86.71 89.863-3.573.367-.031 2.846 1.527-.755zM86.71 89.863l-1.512-1.833-2.174.032.037 1.075 1.183.519z" style="opacity:.5;fill:none;fill-opacity:1;stroke:#f0f0f5;stroke-width:.0228483;stroke-linecap:butt;stroke-linejoin:miter;stroke-miterlimit:4;stroke-dasharray:none;stroke-opacity:1"/><path d="m86.71 89.863-2.466-.207-1.107.574zM85.198 88.03l2.513-2.32-2.722.828zM92.105 91.126l1.39-.948-.663-1.502-2.161.844z" style="opacity:.5;fill:none;fill-opacity:1;stroke:#f0f0f5;stroke-width:.0228483;stroke-linecap:butt;stroke-linejoin:miter;stroke-miterlimit:4;stroke-dasharray:none;stroke-opacity:1"/><path d="m93.71 91.95-.215-1.772-1.39.948 1.606.824 1.082-2.443-.282-1.373-1.68.542.664 1.502.216 1.772" style="opacity:.5;fill:none;fill-opacity:1;stroke:#f0f0f5;stroke-width:.0228483;stroke-linecap:butt;stroke-linejoin:miter;stroke-miterlimit:4;stroke-dasharray:none;stroke-opacity:1"/><path d="m94.511 88.134-3.587-.595-.253 1.98 3.84-1.385M89.538 89.005l1.133.515-1.974.505-3.499-1.995zM88.697 90.025l-3.499-1.995 1.512 1.833 1.987.162.896 3.157-.871-1.196-2.012-2.123 1.987.162" style="opacity:.5;fill:none;fill-opacity:1;stroke:#f0f0f5;stroke-width:.0228483;stroke-linecap:butt;stroke-linejoin:miter;stroke-miterlimit:4;stroke-dasharray:none;stroke-opacity:1"/><path d="M89.593 93.182c-.537.228-2.292.823-2.292.823l-2.668-1.684 4.089-.335z" style="opacity:.5;fill:none;fill-opacity:1;stroke:#f0f0f5;stroke-width:.0228483;stroke-linecap:butt;stroke-linejoin:miter;stroke-miterlimit:4;stroke-dasharray:none;stroke-opacity:1"/><path d="m89.122 94.452 1.863-.529-1.392-.74-2.292.822z" style="opacity:.5;fill:none;fill-opacity:1;stroke:#f0f0f5;stroke-width:.0228483;stroke-linecap:butt;stroke-linejoin:miter;stroke-miterlimit:4;stroke-dasharray:none;stroke-opacity:1"/><path d="m90.985 93.923 1.12-2.797-.92.497-1.592 1.56zM90.052 96.138l-3.491.225 2.56-1.91 1.864-.53zM90.052 96.138l1.106 2.948 2.26-2.264-1.164-.622 2.62-1.46-4.822 1.398" style="opacity:.5;fill:none;fill-opacity:1;stroke:#f0f0f5;stroke-width:.0228483;stroke-linecap:butt;stroke-linejoin:miter;stroke-miterlimit:4;stroke-dasharray:none;stroke-opacity:1"/><path d="m94.873 94.74 2.066 2.643-3.521-.561-1.164-.622z" style="opacity:.5;fill:none;fill-opacity:1;stroke:#f0f0f5;stroke-width:.0228483;stroke-linecap:butt;stroke-linejoin:miter;stroke-miterlimit:4;stroke-dasharray:none;stroke-opacity:1"/><path d="m94.873 94.74 1.476-.684.59 3.327-2.066-2.643" style="opacity:.5;fill:none;fill-opacity:1;stroke:#f0f0f5;stroke-width:.0228483;stroke-linecap:butt;stroke-linejoin:miter;stroke-miterlimit:4;stroke-dasharray:none;stroke-opacity:1"/><path d="m96.35 94.056 1.075-.349-1.341-1.229-1.21 2.262zM96.084 92.478l-1.02-1.463-1.353.935 1.162 2.79zM93.71 91.95l-1.605-.824 2.768 3.614zM91.158 99.086l-3.266-.048.357-2.458 1.803-.442zM86.561 96.363l-.843 1.056-.077-2.89 1.66-.524z" style="opacity:.5;fill:none;fill-opacity:1;stroke:#f0f0f5;stroke-width:.0228483;stroke-linecap:butt;stroke-linejoin:miter;stroke-miterlimit:4;stroke-dasharray:none;stroke-opacity:1"/><path d="m85.64 94.53-1.007-2.209 2.668 1.684zM85.718 97.42l2.53-.84 1.804-.442-3.491.225zM93.416 59.17 90.74 63.69l3.539 1.53-.673-3.023 1.553-.183-1.744-2.846M90.741 63.691l1.11 2.74 2.429-1.21z" style="opacity:.5;fill:none;fill-opacity:1;stroke:#f0f0f5;stroke-width:.0228483;stroke-linecap:butt;stroke-linejoin:miter;stroke-miterlimit:4;stroke-dasharray:none;stroke-opacity:1"/><path d="m94.28 65.221.88-3.206-1.553.183zM76.422 94.69l2.564 2.159-2.306 1.963-1.139-.916.88-3.206M92.453 80.57l-2.21-1.617 1.576 3.168 1.804.724zM87.647 62.435s4.914 3.751 4.203 3.996c-.71.244-3.53 1.05-3.53 1.05l-.673-5.046" style="opacity:.5;fill:none;fill-opacity:1;stroke:#f0f0f5;stroke-width:.0228483;stroke-linecap:butt;stroke-linejoin:miter;stroke-miterlimit:4;stroke-dasharray:none;stroke-opacity:1"/><path d="m90.741 63.691-3.094-1.256 4.203 3.996-1.109-2.74M12.158 3.297l-1.125 1.205 1.233 4.35-.108-5.555M1.378 5.393l1.605-2.911-3.41.674 1.805 2.237-2.64.767.836-3.004 1.804 2.237M31.644 90.978l3.407 8.981-3.085-4.288zM93.117 51.114l.596.38.41 1.716-1.485 1.653zM92.38 59.357a75.166 75.166 0 0 0 1.227 2.84l.258-4.493zM.445 98.745l2.523-1.404-.46-2.12zM2.968 97.341l4.956.68-2.15-2.176-2.806 1.496M20.037 99.108l3.83-.685-.54-2.698-1.796.142z" style="opacity:.5;fill:none;fill-opacity:1;stroke:#f0f0f5;stroke-width:.0228483;stroke-linecap:butt;stroke-linejoin:miter;stroke-miterlimit:4;stroke-dasharray:none;stroke-opacity:1"/></svg>