<svg xmlns="http://www.w3.org/2000/svg" width="768" height="768" viewBox="0 0 203.2 203.2"><path d="m138.712 9.751-11.987-4.58.583-6.386zM166.288 3.462l-5.824 4.32.946-7.93 4.514.362zM158.393 6.872l-5.13-1.152s-1.797 7.998-1.445 8.041c.35.043 8.158 2.344 8.158 2.344l-6.564-5.33zM168.476 10.33l-1.762-3.02-4.51 2.391.266 5.904zM174.06 1.356 168.727.21l-1.336 5.885Z" style="opacity:.5;fill:none;fill-opacity:1;stroke:#f0f0f5;stroke-width:.0438305;stroke-linecap:butt;stroke-linejoin:miter;stroke-miterlimit:4;stroke-dasharray:none;stroke-opacity:1"/><path d="m138.712 9.751-1.746-2.373 4.907-6.187 4.057 2.333-7.218 6.227-11.404-10.966 6.776-1.124 2.882 9.717 1.746 2.373M157.754 2.377l3.656-2.525-.075-3.805-3.984 1.13.403 5.2M161.41-.148c-.177 1.048-.946 7.93-.946 7.93l-2.071-.91-5.13-1.152zM166.288 3.462l.426 3.847-6.25.474 5.824-4.321M168.728.209l-2.804.005.364 3.248 1.104 2.632L168.728.21" style="opacity:.5;fill:none;fill-opacity:1;stroke:#f0f0f5;stroke-width:.0438305;stroke-linecap:butt;stroke-linejoin:miter;stroke-miterlimit:4;stroke-dasharray:none;stroke-opacity:1"/><path d="m174.06 1.356-5.584 8.974-1.762-3.02-.426-3.848 1.104 2.632 6.667-4.738M174.06 1.356l5.882 5.55.977-6.11-3.27 1.198-2.326-4.912-.932.762zM200.914-1.65l-7.803 6.598-1.294-6.384L196.041.89z" style="opacity:.5;fill:none;fill-opacity:1;stroke:#f0f0f5;stroke-width:.0438305;stroke-linecap:butt;stroke-linejoin:miter;stroke-miterlimit:4;stroke-dasharray:none;stroke-opacity:1"/><path d="M200.914-1.65 196.04.89l-2.126-7.324z" style="opacity:.5;fill:none;fill-opacity:1;stroke:#f0f0f5;stroke-width:.0438305;stroke-linecap:butt;stroke-linejoin:miter;stroke-miterlimit:4;stroke-dasharray:none;stroke-opacity:1"/><path d="m196.041.89-4.224-2.326-1.972-1.271 4.07-3.727L196.04.889" style="opacity:.5;fill:none;fill-opacity:1;stroke:#f0f0f5;stroke-width:.0438305;stroke-linecap:butt;stroke-linejoin:miter;stroke-miterlimit:4;stroke-dasharray:none;stroke-opacity:1"/><path d="m191.817-1.436-6.152 5.893L182.392.06l7.453-2.767 1.972 1.271M191.625 5.013l1.486-.065-1.294-6.383zM191.625 5.013l.192-6.449-6.152 5.893zM202.274 9.86l-1.36-11.51-7.803 6.598 4.714.191 4.45 4.72M202.274 9.86l-.716 5.16-5.45 3.715 3.983-4.575-1.438-2.876z" style="opacity:.5;fill:none;fill-opacity:1;stroke:#f0f0f5;stroke-width:.0438305;stroke-linecap:butt;stroke-linejoin:miter;stroke-miterlimit:4;stroke-dasharray:none;stroke-opacity:1"/><path d="m196.108 18.735-2.308-5.762 6.29 1.187z" style="opacity:.5;fill:none;fill-opacity:1;stroke:#f0f0f5;stroke-width:.0438305;stroke-linecap:butt;stroke-linejoin:miter;stroke-miterlimit:4;stroke-dasharray:none;stroke-opacity:1"/><path d="m189.841 18.752 3.959-5.779 6.29 1.187-1.437-2.876-8.473-.506z" style="opacity:.5;fill:none;fill-opacity:1;stroke:#f0f0f5;stroke-width:.0438305;stroke-linecap:butt;stroke-linejoin:miter;stroke-miterlimit:4;stroke-dasharray:none;stroke-opacity:1"/><path d="m192.747 20.678 8.81-5.659-5.449 3.716-2.308-5.762-3.959 5.779z" style="opacity:.5;fill:none;fill-opacity:1;stroke:#f0f0f5;stroke-width:.0438305;stroke-linecap:butt;stroke-linejoin:miter;stroke-miterlimit:4;stroke-dasharray:none;stroke-opacity:1"/><path d="m192.747 20.678-8.638.098 1.745-4.885 2.66 3.843 1.327-.982z" style="opacity:.5;fill:none;fill-opacity:1;stroke:#f0f0f5;stroke-width:.0438305;stroke-linecap:butt;stroke-linejoin:miter;stroke-miterlimit:4;stroke-dasharray:none;stroke-opacity:1"/><path d="m189.841 18.752.34-7.974-4.327 5.113 2.66 3.843z" style="opacity:.5;fill:none;fill-opacity:1;stroke:#f0f0f5;stroke-width:.0438305;stroke-linecap:butt;stroke-linejoin:miter;stroke-miterlimit:4;stroke-dasharray:none;stroke-opacity:1"/><path d="m185.854 15.891-5.146-2.413 4-1.885 5.472-.815z" style="opacity:.5;fill:none;fill-opacity:1;stroke:#f0f0f5;stroke-width:.0438305;stroke-linecap:butt;stroke-linejoin:miter;stroke-miterlimit:4;stroke-dasharray:none;stroke-opacity:1"/><path d="m184.109 20.776-4.185-3.954 5.93-.931zM176.374 20.008l-6.711.84 3.004-7.496 7.257 3.47-3.55 3.186" style="opacity:.5;fill:none;fill-opacity:1;stroke:#f0f0f5;stroke-width:.0438305;stroke-linecap:butt;stroke-linejoin:miter;stroke-miterlimit:4;stroke-dasharray:none;stroke-opacity:1"/><path d="m180.708 13.478-.784 3.344 5.93-.931-5.146-2.413-3.668-2.832-4.373 2.706 7.257 3.47.784-3.344.235-4.254 2.604.94 1.16 1.43-4 1.884" style="opacity:.5;fill:none;fill-opacity:1;stroke:#f0f0f5;stroke-width:.0438305;stroke-linecap:butt;stroke-linejoin:miter;stroke-miterlimit:4;stroke-dasharray:none;stroke-opacity:1"/><path d="m184.708 11.593-1.161-1.429 6.633.614zM180.943 9.224l-6.71-2.737-5.54 6.483 6.597-3.104 1.75.78 3.668 2.832.235-4.254" style="opacity:.5;fill:none;fill-opacity:1;stroke:#f0f0f5;stroke-width:.0438305;stroke-linecap:butt;stroke-linejoin:miter;stroke-miterlimit:4;stroke-dasharray:none;stroke-opacity:1"/><path d="m177.04 10.646-4.373 2.706-3.973-.382 6.596-3.104zM174.232 6.487l-.173-5.13 5.883 5.55 1.001 2.317zM185.449 6.055l.216-1.598L182.392.06l-2.45 6.846z" style="opacity:.5;fill:none;fill-opacity:1;stroke:#f0f0f5;stroke-width:.0438305;stroke-linecap:butt;stroke-linejoin:miter;stroke-miterlimit:4;stroke-dasharray:none;stroke-opacity:1"/><path d="m182.392.06-1.473.737-.977 6.11 2.45-6.847M174.06 1.356l.172 5.131-5.756 3.843 5.583-8.974" style="opacity:.5;fill:none;fill-opacity:1;stroke:#f0f0f5;stroke-width:.0438305;stroke-linecap:butt;stroke-linejoin:miter;stroke-miterlimit:4;stroke-dasharray:none;stroke-opacity:1"/><path d="m174.232 6.487-5.538 6.483-6.224 2.635 6.006-5.275zM172.667 13.352l-3.973-.382.969 7.877zM162.204 9.701l-1.74-1.918-2.071-.911-4.981 3.903zM190.1 24.766l7.216 8.605 4.819-8.876-.577-9.476-8.81 5.659-2.647 4.088M-2.977-7.376l3.86 8.989-4.07 3.727-2.631-11.35Z" style="opacity:.5;fill:none;fill-opacity:1;stroke:#f0f0f5;stroke-width:.0438305;stroke-linecap:butt;stroke-linejoin:miter;stroke-miterlimit:4;stroke-dasharray:none;stroke-opacity:1"/><path d="m.882 1.613 7 4.785-5.12-8.221 7.129-4.923-7.709-1.843Z" style="opacity:.5;fill:none;fill-opacity:1;stroke:#f0f0f5;stroke-width:.0438305;stroke-linecap:butt;stroke-linejoin:miter;stroke-miterlimit:4;stroke-dasharray:none;stroke-opacity:1"/><path d="M9.89-6.746 7.882 6.398 2.763-1.823ZM7.881 6.398 3.01 8.937.882 1.613Z" style="opacity:.5;fill:none;fill-opacity:1;stroke:#f0f0f5;stroke-width:.0438305;stroke-linecap:butt;stroke-linejoin:miter;stroke-miterlimit:4;stroke-dasharray:none;stroke-opacity:1"/><path d="M3.01 8.937-1.216 6.61-3.187 5.34l4.07-3.727 2.126 7.324" style="opacity:.5;fill:none;fill-opacity:1;stroke:#f0f0f5;stroke-width:.0438305;stroke-linecap:butt;stroke-linejoin:miter;stroke-miterlimit:4;stroke-dasharray:none;stroke-opacity:1"/><path d="m-5.422 96.723 3.113-10.064-7.161 2.46-.487 5.98 4.535 1.624" style="opacity:.5;fill:none;fill-opacity:1;stroke:#f0f0f5;stroke-width:1.53407e-06;stroke-linecap:butt;stroke-linejoin:miter;stroke-miterlimit:4;stroke-dasharray:none;stroke-opacity:1"/><path d="m-3.96 75.583-4.864 10.13 5.137-.963s6.64 4.984 6.809 4.572c.169-.413-7.081-13.739-7.081-13.739Z" style="opacity:.5;fill:none;fill-opacity:1;stroke:#f0f0f5;stroke-width:.0438305;stroke-linecap:butt;stroke-linejoin:miter;stroke-miterlimit:4;stroke-dasharray:none;stroke-opacity:1"/><path d="m-2.309 86.66-1.378-1.91-5.783 4.37 7.161-2.46" style="opacity:.5;fill:none;fill-opacity:1;stroke:#f0f0f5;stroke-width:1.53407e-06;stroke-linecap:butt;stroke-linejoin:miter;stroke-miterlimit:4;stroke-dasharray:none;stroke-opacity:1"/><path d="m-3.687 84.75 6.808 4.513s-1.88 3.134-2.007 2.55C.987 91.232-2.31 86.66-2.31 86.66z" style="opacity:.5;fill:none;fill-opacity:1;stroke:#f0f0f5;stroke-width:.0438305;stroke-linecap:butt;stroke-linejoin:miter;stroke-miterlimit:4;stroke-dasharray:none;stroke-opacity:1"/><path d="m1.056 91.873-6.478 4.85 3.113-10.064z" style="opacity:.5;fill:none;fill-opacity:1;stroke:#f0f0f5;stroke-width:.0438305;stroke-linecap:butt;stroke-linejoin:miter;stroke-miterlimit:4;stroke-dasharray:none;stroke-opacity:1"/><path d="m-5.422 96.723 4.84 5.834-11.358 3.642z" style="opacity:.5;fill:none;fill-opacity:1;stroke:#f0f0f5;stroke-width:1.53407e-06;stroke-linecap:butt;stroke-linejoin:miter;stroke-miterlimit:4;stroke-dasharray:none;stroke-opacity:1"/><path d="m.055 112.793 4.879-2.364-3.851-2.747-4.544 1.422 3.516 3.69" style="opacity:.5;fill:none;fill-opacity:1;stroke:#f0f0f5;stroke-width:.0438305;stroke-linecap:butt;stroke-linejoin:miter;stroke-miterlimit:4;stroke-dasharray:none;stroke-opacity:1"/><path d="m1.083 107.682-4.544 1.422 2.878-6.547 1.666 5.125 7.49-3.812-3.639 6.56-3.851-2.748M13.647 177.825l10.85.954-3.126 7.912zM2.28 188.564l-2.582 6.558s7.856-.271 7.922-.556c.067-.284.108-6.375.108-6.375zM31.776 195.017l-3.858 13.138-5.7-2.057zM43.315 181.868l7.35 3.348-2.46 5.423-6.775-2.863 5.226-.865zM-9.923 111.62l-6.49 5.844 9.896 3.165zM-5.75 199.673l2.8 6.611 10.822 1.205zM6.132 198.77l3.845-3.039 1.853 4.998zM14.168 192.263l-1.38 2.218 2.78 1.016.086-3.33zM-.925 116.146l3.337 4.831 5.179.552.378-7.088zM23.226 191.83l-3.554 7.778 9.725-2.852zM40.477 194.449l-6.57 5.207 11.549 8.528 2.865-6.216-7.32-1.579z" style="opacity:.5;fill:none;fill-opacity:1;stroke:#f0f0f5;stroke-width:.0438305;stroke-linecap:butt;stroke-linejoin:miter;stroke-miterlimit:4;stroke-dasharray:none;stroke-opacity:1"/><path d="m8.573 103.87 2.18 7.755-4.424 1.926-1.395-3.122zM1.543 98.132c-.019-1.102-.487-6.259-.487-6.259l-6.478 4.85 4.84 5.834zM-3.96 75.583l6.707 3 .224 4.427.15 6.253zM8.205 84.601l5.54-12.537-10.998 6.518.248 4.403ZM45.456 208.184l-10.478-1.92-1.071-6.608ZM31.776 195.017l-2.379 1.74-6.171-4.927 2.345-4.05 6.205 7.237-9.557 11.081-2.547-6.49 9.725-2.852 2.38-1.739" style="opacity:.5;fill:none;fill-opacity:1;stroke:#f0f0f5;stroke-width:.0438305;stroke-linecap:butt;stroke-linejoin:miter;stroke-miterlimit:4;stroke-dasharray:none;stroke-opacity:1"/><path d="m19.672 199.608-4.105-4.11.087-3.33 7.572-.338-3.554 7.778" style="opacity:.5;fill:none;fill-opacity:1;stroke:#f0f0f5;stroke-width:.0438305;stroke-linecap:butt;stroke-linejoin:miter;stroke-miterlimit:4;stroke-dasharray:none;stroke-opacity:1"/><path d="m15.654 192.168 4.11-4.105 3.462 3.767z" style="opacity:.5;fill:none;fill-opacity:1;stroke:#f0f0f5;stroke-width:.0438305;stroke-linecap:butt;stroke-linejoin:miter;stroke-miterlimit:4;stroke-dasharray:none;stroke-opacity:1"/><path d="m19.764 188.063 1.607-1.372 4.2 1.09-2.345 4.05z" style="opacity:.5;fill:none;fill-opacity:1;stroke:#f0f0f5;stroke-width:.0438305;stroke-linecap:butt;stroke-linejoin:miter;stroke-miterlimit:4;stroke-dasharray:none;stroke-opacity:1"/><path d="m21.37 186.691 3.128-7.912 1.109 7.134-.035 1.868z" style="opacity:.5;fill:none;fill-opacity:1;stroke:#f0f0f5;stroke-width:.0438305;stroke-linecap:butt;stroke-linejoin:miter;stroke-miterlimit:4;stroke-dasharray:none;stroke-opacity:1"/><path d="m25.607 185.913 7.1-7.482-2.82-2.289-2.3 6.297-3.09-3.66 1.11 7.134" style="opacity:.5;fill:none;fill-opacity:1;stroke:#f0f0f5;stroke-width:.0438305;stroke-linecap:butt;stroke-linejoin:miter;stroke-miterlimit:4;stroke-dasharray:none;stroke-opacity:1"/><path d="m26.636 175.344-2.138 3.435 3.088 3.66 2.3-6.297-3.25-.798M17.172 115.174l-2.504 2.996 3.08 4.656 3.034-4.306zM14.668 118.17l-3.841.915 2.579 1.51z" style="opacity:.5;fill:none;fill-opacity:1;stroke:#f0f0f5;stroke-width:.0438305;stroke-linecap:butt;stroke-linejoin:miter;stroke-miterlimit:4;stroke-dasharray:none;stroke-opacity:1"/><path d="m14.055 117.48-3.228 1.605-4.498-5.534 4.425-1.926z" style="opacity:.5;fill:none;fill-opacity:1;stroke:#f0f0f5;stroke-width:.0438305;stroke-linecap:butt;stroke-linejoin:miter;stroke-miterlimit:4;stroke-dasharray:none;stroke-opacity:1"/><path d="m14.055 117.48.613.69-3.841.915zM13.508 108.625l-1.497-2.73-3.438-2.025 2.18 7.755zM14.168 192.263l-4.406-.59-2.034-3.482 2.812-1.25 3.628 5.322" style="opacity:.5;fill:none;fill-opacity:1;stroke:#f0f0f5;stroke-width:.0438305;stroke-linecap:butt;stroke-linejoin:miter;stroke-miterlimit:4;stroke-dasharray:none;stroke-opacity:1"/><path d="m14.168 192.263 1.486-.095 4.11-4.105-9.224-1.122zM14.168 192.263l-1.38 2.218-5.156.105 2.13-2.914z" style="opacity:.5;fill:none;fill-opacity:1;stroke:#f0f0f5;stroke-width:.0438305;stroke-linecap:butt;stroke-linejoin:miter;stroke-miterlimit:4;stroke-dasharray:none;stroke-opacity:1"/><path d="m9.762 191.672-2.034-3.48-.096 6.395zM1.014 186.534l-.813 2.341-.503 6.247 2.583-6.558z" style="opacity:.5;fill:none;fill-opacity:1;stroke:#f0f0f5;stroke-width:.0438305;stroke-linecap:butt;stroke-linejoin:miter;stroke-miterlimit:4;stroke-dasharray:none;stroke-opacity:1"/><path d="m.201 188.875-2.049.235-4.212 5.678 2.813 2.081 2.945-1.747z" style="opacity:.5;fill:none;fill-opacity:1;stroke:#f0f0f5;stroke-width:1.53407e-06;stroke-linecap:butt;stroke-linejoin:miter;stroke-miterlimit:4;stroke-dasharray:none;stroke-opacity:1"/><path d="m3.723 172.96-3.944 1.305 1.265 3.697s5.952-1.94 5.949-2.116c-.003-.177-3.27-2.885-3.27-2.885z" style="opacity:.5;fill:none;fill-opacity:1;stroke:#f0f0f5;stroke-width:.0438305;stroke-linecap:butt;stroke-linejoin:miter;stroke-miterlimit:4;stroke-dasharray:none;stroke-opacity:1"/><path d="m3.723 172.96-1.09-1.68-2.854 2.985 3.944-1.304M2.633 171.28l-2.024-2.517-2.773 1.498 1.943 4.004zM-22.5 113.315l-.594 6.95 3.827.185-3.233-7.135M9.446 176.478l-1.294-3.482-1.206 2.774 1.922 4.258z" style="opacity:.5;fill:none;fill-opacity:1;stroke:#f0f0f5;stroke-width:.0438305;stroke-linecap:butt;stroke-linejoin:miter;stroke-miterlimit:4;stroke-dasharray:none;stroke-opacity:1"/><path d="m8.152 172.996-5.519-1.717 1.09 1.682 3.223 2.809zM12.529 174.444l.96 6.641-4.043-4.607-1.294-3.482ZM-6.517 120.629l5.47-2.563-4.673-3.979-1.013 2.32-3.19-4.787 3.406 9.009M15.611 129.822l-3.34-2.148 1.135-7.08 2.44 5.218z" style="opacity:.5;fill:none;fill-opacity:1;stroke:#f0f0f5;stroke-width:.0438305;stroke-linecap:butt;stroke-linejoin:miter;stroke-miterlimit:4;stroke-dasharray:none;stroke-opacity:1"/><path d="m15.845 125.812 1.904-2.986-3.081-4.656-1.262 2.425 2.44 5.217M15.611 129.822l-3.34-2.148-2.116 2.288 4.795 2.059zM-5.72 114.087l4.673 3.98 3.459 2.91-3.337-4.831zM17.998 171.882l.404 6.252-4.755-.31-1.118-3.38z" style="opacity:.5;fill:none;fill-opacity:1;stroke:#f0f0f5;stroke-width:.0438305;stroke-linecap:butt;stroke-linejoin:miter;stroke-miterlimit:4;stroke-dasharray:none;stroke-opacity:1"/><path d="m21.457 174.793-1 3.508-2.055-.167-.404-6.252zM26.636 175.344l-2.138 3.435-4.04-.478 1-3.508 5.178.551M48.32 201.968l5.638-3.811-3.218-4.054-2.44 4.501-5.319-2.638 1.397 3.128z" style="opacity:.5;fill:none;fill-opacity:1;stroke:#f0f0f5;stroke-width:.0438305;stroke-linecap:butt;stroke-linejoin:miter;stroke-miterlimit:4;stroke-dasharray:none;stroke-opacity:1"/><path d="m42.981 195.966-2.504-1.517.523 5.94 7.32 1.579-3.942-2.874zM42.981 195.966l3.337-3.773-5.242-2.215-.599 4.471z" style="opacity:.5;fill:none;fill-opacity:1;stroke:#f0f0f5;stroke-width:.0438305;stroke-linecap:butt;stroke-linejoin:miter;stroke-miterlimit:4;stroke-dasharray:none;stroke-opacity:1"/><path d="m46.318 192.193 4.422 1.91-2.44 4.501-5.319-2.638zM41.996 181.358l1.319.51 3.34 5.043-5.225.865zM41.076 189.978l7.128.661-6.774-2.863z" style="opacity:.5;fill:none;fill-opacity:1;stroke:#f0f0f5;stroke-width:.0438305;stroke-linecap:butt;stroke-linejoin:miter;stroke-miterlimit:4;stroke-dasharray:none;stroke-opacity:1"/><path d="m48.204 190.639 2.536 3.464-4.422-1.91-5.242-2.215 7.128.661M18.403 85.933l2.236-9.608-5.667 7.717-1.227-11.978-5.54 12.537Z" style="opacity:.5;fill:none;fill-opacity:1;stroke:#f0f0f5;stroke-width:.0438305;stroke-linecap:butt;stroke-linejoin:miter;stroke-miterlimit:4;stroke-dasharray:none;stroke-opacity:1"/><path d="m54.611 189.08-1.813-2.174-4.594 3.733 2.536 3.464z" style="opacity:.5;fill:none;fill-opacity:1;stroke:#f0f0f5;stroke-width:.0438305;stroke-linecap:butt;stroke-linejoin:miter;stroke-miterlimit:4;stroke-dasharray:none;stroke-opacity:1"/><path d="m52.798 186.906 5.938-1.275-2.871-2.532-5.2 2.117-2.46 5.423z" style="opacity:.5;fill:none;fill-opacity:1;stroke:#f0f0f5;stroke-width:.0438305;stroke-linecap:butt;stroke-linejoin:miter;stroke-miterlimit:4;stroke-dasharray:none;stroke-opacity:1"/><path d="m50.413 175.904-3.774 3.572-4.643 1.882 1.319.51 7.35 3.348-.252-9.312M58.736 185.63l-5.938 1.276 1.813 2.173 4.742 5.554-.617-9.002 5.832.048-2.496-6.936-6.207 4.356 2.87 2.532M53.958 198.157l-5.637 3.81 3.444-.272 5.542-.159z" style="opacity:.5;fill:none;fill-opacity:1;stroke:#f0f0f5;stroke-width:.0438305;stroke-linecap:butt;stroke-linejoin:miter;stroke-miterlimit:4;stroke-dasharray:none;stroke-opacity:1"/><path d="m-5.75 199.673 8.634.05-3.186-4.601-2.945 1.747-2.813-2.081.31 4.885" style="opacity:.5;fill:none;fill-opacity:1;stroke:#f0f0f5;stroke-width:1.53407e-06;stroke-linecap:butt;stroke-linejoin:miter;stroke-miterlimit:4;stroke-dasharray:none;stroke-opacity:1"/><path d="m2.884 199.722 4.988 7.767-13.622-7.816z" style="opacity:.5;fill:none;fill-opacity:1;stroke:#f0f0f5;stroke-width:.0438305;stroke-linecap:butt;stroke-linejoin:miter;stroke-miterlimit:4;stroke-dasharray:none;stroke-opacity:1"/><path d="m6.132 198.77 1.74 8.72 3.958-6.761-5.698-1.96" style="opacity:.5;fill:none;fill-opacity:1;stroke:#f0f0f5;stroke-width:.0438305;stroke-linecap:butt;stroke-linejoin:miter;stroke-miterlimit:4;stroke-dasharray:none;stroke-opacity:1"/><path d="m6.132 198.77 1.5-4.183 2.345 1.144-3.845 3.038" style="opacity:.5;fill:none;fill-opacity:1;stroke:#f0f0f5;stroke-width:.0438305;stroke-linecap:butt;stroke-linejoin:miter;stroke-miterlimit:4;stroke-dasharray:none;stroke-opacity:1"/><path d="m6.132 198.77-6.434-3.648 7.934-.535-1.5 4.182" style="opacity:.5;fill:none;fill-opacity:1;stroke:#f0f0f5;stroke-width:.0438305;stroke-linecap:butt;stroke-linejoin:miter;stroke-miterlimit:4;stroke-dasharray:none;stroke-opacity:1"/><path d="m6.132 198.77-3.248.952-3.186-4.6 6.434 3.647" style="opacity:.5;fill:none;fill-opacity:1;stroke:#f0f0f5;stroke-width:.0438305;stroke-linecap:butt;stroke-linejoin:miter;stroke-miterlimit:4;stroke-dasharray:none;stroke-opacity:1"/><path d="m2.884 199.722 4.988 7.767-1.74-8.72-3.248.953M22.219 206.098l-2.547-6.49-1.579 2.317zM18.093 201.925l-6.263-1.196.882 4.067z" style="opacity:.5;fill:none;fill-opacity:1;stroke:#f0f0f5;stroke-width:.0438305;stroke-linecap:butt;stroke-linejoin:miter;stroke-miterlimit:4;stroke-dasharray:none;stroke-opacity:1"/><path d="m11.83 200.729 3.737-5.232 4.105 4.11-1.579 2.318-6.263-1.196" style="opacity:.5;fill:none;fill-opacity:1;stroke:#f0f0f5;stroke-width:.0438305;stroke-linecap:butt;stroke-linejoin:miter;stroke-miterlimit:4;stroke-dasharray:none;stroke-opacity:1"/><path d="m11.83 200.729-1.853-4.998 2.812-1.25 2.778 1.016zM-3.565 200.21l2.49 1.164 2.936-1.367-5.426.204M-20.04 12.978l2.178-5.277 3.76-3.886-1.604 5.763-4.335 3.4 1.018 2.168 6.167.45-2.85-6.018-4.335 3.4M-3.96 75.583l6.707 3-1.258-7.551-2.945 1.747-2.813-2.082.31 4.886M13.745 72.064 1.49 71.032l7.934-.535 4.322 1.567M13.745 72.064 2.747 78.582l-1.258-7.55 12.256 1.032M135.296 207.755l.92-7.192-9.094-1.191.45 3.649z" style="opacity:.5;fill:none;fill-opacity:1;stroke:#f0f0f5;stroke-width:.0438305;stroke-linecap:butt;stroke-linejoin:miter;stroke-miterlimit:4;stroke-dasharray:none;stroke-opacity:1"/><path d="m121.39 200.873 5.732-1.501 1.132-4.374-7.455-6.305s1.756 5.156 1.752 5.487c-.005.332-1.161 6.693-1.161 6.693zM127.573 203.02l-6.183-2.147 5.732-1.501.45 3.649M125.735 204.322l.345 5.41 9.216-1.977-7.723-4.734z" style="opacity:.5;fill:none;fill-opacity:1;stroke:#f0f0f5;stroke-width:.0438305;stroke-linecap:butt;stroke-linejoin:miter;stroke-miterlimit:4;stroke-dasharray:none;stroke-opacity:1"/><path d="m125.735 204.322-4.345-3.45 6.183 2.149zM113.884 205.083l7.506-4.21-.166 6.539-8.939 1.004z" style="opacity:.5;fill:none;fill-opacity:1;stroke:#f0f0f5;stroke-width:.0438305;stroke-linecap:butt;stroke-linejoin:miter;stroke-miterlimit:4;stroke-dasharray:none;stroke-opacity:1"/><path d="m121.224 207.412 4.856 2.32-.345-5.41-4.345-3.45z" style="opacity:.5;fill:none;fill-opacity:1;stroke:#f0f0f5;stroke-width:.0438305;stroke-linecap:butt;stroke-linejoin:miter;stroke-miterlimit:4;stroke-dasharray:none;stroke-opacity:1"/><path d="m120.799 188.693-10.807 3.341 7.094 2.16 4.304 6.679 1.1-6.714-1.691-5.466M132.883 189.095c-.088.413 3.332 11.468 3.332 11.468l-9.093-1.191 1.132-4.374zM120.799 188.693s-10.62-5.25-10.617-5.485c.003-.234-2.772-12.272-2.772-12.272l7.169 7.234zM104.807 186.946l-.122 14.284-3.282-9z" style="opacity:.5;fill:none;fill-opacity:1;stroke:#f0f0f5;stroke-width:.0438305;stroke-linecap:butt;stroke-linejoin:miter;stroke-miterlimit:4;stroke-dasharray:none;stroke-opacity:1"/><path d="m104.685 201.23 8.05-2.24-4.674-5.445-3.376 7.685" style="opacity:.5;fill:none;fill-opacity:1;stroke:#f0f0f5;stroke-width:.0438305;stroke-linecap:butt;stroke-linejoin:miter;stroke-miterlimit:4;stroke-dasharray:none;stroke-opacity:1"/><path d="m108.06 193.545-3.377-1.448.002 9.133M112.734 198.99l8.656 1.883-4.304-6.679z" style="opacity:.5;fill:none;fill-opacity:1;stroke:#f0f0f5;stroke-width:.0438305;stroke-linecap:butt;stroke-linejoin:miter;stroke-miterlimit:4;stroke-dasharray:none;stroke-opacity:1"/><path d="m112.734 198.99 1.15 6.093 7.506-4.21z" style="opacity:.5;fill:none;fill-opacity:1;stroke:#f0f0f5;stroke-width:.0438305;stroke-linecap:butt;stroke-linejoin:miter;stroke-miterlimit:4;stroke-dasharray:none;stroke-opacity:1"/><path d="m104.685 201.23 9.2 3.853-1.6 3.333-3.513-2.254-4.087-4.932 9.2 3.853-1.15-6.093-8.05 2.24-3.943-3.036-5.908 4.2 5.162-.813 1.131 3.176 3.558-3.527" style="opacity:.5;fill:none;fill-opacity:1;stroke:#f0f0f5;stroke-width:.0438305;stroke-linecap:butt;stroke-linejoin:miter;stroke-miterlimit:4;stroke-dasharray:none;stroke-opacity:1"/><path d="m101.127 204.757 7.645 1.405-4.087-4.932-3.558 3.527" style="opacity:.5;fill:none;fill-opacity:1;stroke:#f0f0f5;stroke-width:.0438305;stroke-linecap:butt;stroke-linejoin:miter;stroke-miterlimit:4;stroke-dasharray:none;stroke-opacity:1"/><path d="m101.127 204.757-3.963 5.832 11.608-4.427-7.645-1.405M87.457 210.147l-13.502-2.362.357-5.838 4.444 4.128 2.92-1.344zM81.644 196.846l4.087-4.055.74 5.958zM81.644 196.846l-2.567-4.246 3.585-3.46 3.07 3.65-4.088 4.056M67.72 192.589l9.742 10.117 1.615-10.106z" style="opacity:.5;fill:none;fill-opacity:1;stroke:#f0f0f5;stroke-width:.0438305;stroke-linecap:butt;stroke-linejoin:miter;stroke-miterlimit:4;stroke-dasharray:none;stroke-opacity:1"/><path d="m81.644 196.846-4.182 5.86 1.615-10.106zM74.257 209.818l-6.536-17.229 9.741 10.117-3.205 7.112M58.388 24.45s5.202-10.643 5.436-10.641c.234.001 12.258-2.83 12.258-2.83l-7.2 7.203zM2.042 40.79l-14.285-.057 8.984-3.323zM-3.259 37.41l1.734-4.494 3.567 7.873zM32.942 3.17l-3.018 3.957 8.984-3.324-5.966-.633M16.291 5.542l-3.81 9.217-2.235-.018-.208-10.654 6.253 1.455-3.81 9.217 6.087-1.178-2.277-8.04 3.017-3.956-4.226-5.889.837 5.159-3.171 1.146 3.543 3.54" style="opacity:.5;fill:none;fill-opacity:1;stroke:#f0f0f5;stroke-width:.0438305;stroke-linecap:butt;stroke-linejoin:miter;stroke-miterlimit:4;stroke-dasharray:none;stroke-opacity:1"/><path d="m12.748 2-2.71 2.087 6.253 1.455L12.748 2" style="opacity:.5;fill:none;fill-opacity:1;stroke:#f0f0f5;stroke-width:.0438305;stroke-linecap:butt;stroke-linejoin:miter;stroke-miterlimit:4;stroke-dasharray:none;stroke-opacity:1"/><path d="M12.748 2 9.891-6.745 7.88 6.398 12.748 2M80.16 12.7l.503-5.378 2.48 4.233zM83.758 5.54l3.244 1.585 3.579-4.787-2.598-2.711Z" style="opacity:.5;fill:none;fill-opacity:1;stroke:#f0f0f5;stroke-width:.0438305;stroke-linecap:butt;stroke-linejoin:miter;stroke-miterlimit:4;stroke-dasharray:none;stroke-opacity:1"/><path d="M96.265 4.331s.997-5.055.607-5.023c-.39.033-5.184 1.906-5.184 1.906L90.58 2.338zM2.398 46.76l2.77-1.955 2.38-6.779-7.2 7.202Z" style="opacity:.5;fill:none;fill-opacity:1;stroke:#f0f0f5;stroke-width:.0438305;stroke-linecap:butt;stroke-linejoin:miter;stroke-miterlimit:4;stroke-dasharray:none;stroke-opacity:1"/><path d="m87.983-.373 2.598 2.711 1.107-1.124-3.846-6.12zM119.999 1.16l1.845 12.798-3.395-7.488-5.127-2.673 6.677-2.638M83.143 11.555l4.403 2.867-3.352-5.904-3.53-1.196zM101.69 6.182l-2.438-3.42 9.178 1.225zM96.265 4.331l1.144 7.48 1.843-9.05-2.438-3.42z" style="opacity:.5;fill:none;fill-opacity:1;stroke:#f0f0f5;stroke-width:.0438305;stroke-linecap:butt;stroke-linejoin:miter;stroke-miterlimit:4;stroke-dasharray:none;stroke-opacity:1"/><path d="m119.999 1.16 7.309-2.375-2.553-5.062-6.307-2.206 1.551 9.642 6.726 4.012.583-6.386M125.242 10.83l1.488-.67.762 12.488-.585-2.786-1.813-5.736z" style="opacity:.5;fill:none;fill-opacity:1;stroke:#f0f0f5;stroke-width:.0438305;stroke-linecap:butt;stroke-linejoin:miter;stroke-miterlimit:4;stroke-dasharray:none;stroke-opacity:1"/><path d="m124.029 4.94-4.03-3.78 6.726 4.01Z" style="opacity:.5;fill:none;fill-opacity:1;stroke:#f0f0f5;stroke-width:.0438305;stroke-linecap:butt;stroke-linejoin:miter;stroke-miterlimit:4;stroke-dasharray:none;stroke-opacity:1"/><path d="m124.029 4.94-1.451 1.835-1.76.6L120 1.16l4.03 3.781M197.232 118.607l6.746-2.456-1.29-9.68zM197.726 109.986l4.962-3.515-5.456 12.136zM189.983 43.826l9.622 5.688-1.92-12.549z" style="opacity:.5;fill:none;fill-opacity:1;stroke:#f0f0f5;stroke-width:.0438305;stroke-linecap:butt;stroke-linejoin:miter;stroke-miterlimit:4;stroke-dasharray:none;stroke-opacity:1"/><path d="m204.086 53.578-6.984 4.638 7.546 4.3 6.624-.789-5.158-3.619z" style="fill:none;fill-opacity:1;stroke:#f0f0f5;stroke-width:.0438305;stroke-linecap:butt;stroke-linejoin:miter;stroke-miterlimit:4;stroke-dasharray:none;stroke-opacity:1"/><path d="m204.648 62.516-9.914 2.872 2.368-7.172zM197.102 58.216l6.984-4.638-4.48-4.064-4.238 3.902 1.734 4.8M189.791 45.684l.192-1.858 9.622 5.688-4.237 3.902zM188.932 188.804l-3.505-6.322-4.82 4.451zM176.652 191.155l-6.333-3.094s-.35 7.853-.073 7.941c.279.089 6.347.612 6.347.612zM199.167 199.805l-5.312-6.932-3.938 9.615zM200.932 176.22l-2.46 10.913-6.88-1.142zM172.024 202.712l-2.102-1.55-1.233 2.689 3.313.35zM181.455 199.402l-3.838.114-1.849 9.107 5.836-3.678zM187.367 194.523l-3.86-4.073-3.985 4.716zM188.134 199.254l-3.494-.858-1.419 4.522zM197.565 171.645l-.796 5.342-2.245-4.362zM200.726 170.46l.206 5.76-3.367-4.575z" style="opacity:.5;fill:none;fill-opacity:1;stroke:#f0f0f5;stroke-width:.0438305;stroke-linecap:butt;stroke-linejoin:miter;stroke-miterlimit:4;stroke-dasharray:none;stroke-opacity:1"/><path d="m196.769 176.987-.507 2.416 4.67-3.183-3.367-4.575z" style="opacity:.5;fill:none;fill-opacity:1;stroke:#f0f0f5;stroke-width:.0438305;stroke-linecap:butt;stroke-linejoin:miter;stroke-miterlimit:4;stroke-dasharray:none;stroke-opacity:1"/><path d="m196.262 179.403-3.13-2.112.176-1.692 3.46 1.388-.506 2.416M196.262 179.403l-4.67 6.588 9.34-9.771zM196.262 179.403l-2.68-.807-1.99 7.395 4.67-6.588" style="opacity:.5;fill:none;fill-opacity:1;stroke:#f0f0f5;stroke-width:.0438305;stroke-linecap:butt;stroke-linejoin:miter;stroke-miterlimit:4;stroke-dasharray:none;stroke-opacity:1"/><path d="m193.581 178.596-.45-1.305 3.131 2.112zM193.131 177.29l.177-1.691-7.397-1.954s-1.993 3.493-1.644 3.586c.349.092 6.161-.394 6.161-.394zM204.515 184.018s-3.42-1.469-3.568-1.503c-.148-.034 3.093-2.515 3.093-2.515l3.392-1.292-2.917 5.31" style="opacity:.5;fill:none;fill-opacity:1;stroke:#f0f0f5;stroke-width:.0438305;stroke-linecap:butt;stroke-linejoin:miter;stroke-miterlimit:4;stroke-dasharray:none;stroke-opacity:1"/><path d="m204.04 180-3.108-3.78-.206-5.76 2.327.217.987 9.323" style="opacity:.5;fill:none;fill-opacity:1;stroke:#f0f0f5;stroke-width:.0438305;stroke-linecap:butt;stroke-linejoin:miter;stroke-miterlimit:4;stroke-dasharray:none;stroke-opacity:1"/><path d="m200.949 182.49-.017-6.27 3.108 3.78z" style="opacity:.5;fill:none;fill-opacity:1;stroke:#f0f0f5;stroke-width:.0438305;stroke-linecap:butt;stroke-linejoin:miter;stroke-miterlimit:4;stroke-dasharray:none;stroke-opacity:1"/><path d="m200.949 182.49-2.476 4.643 2.459-10.913.017 6.27" style="opacity:.5;fill:none;fill-opacity:1;stroke:#f0f0f5;stroke-width:.0438305;stroke-linecap:butt;stroke-linejoin:miter;stroke-miterlimit:4;stroke-dasharray:none;stroke-opacity:1"/><path d="m199.012 189.768-.54-2.635 2.477-4.643 3.566 1.528z" style="opacity:.5;fill:none;fill-opacity:1;stroke:#f0f0f5;stroke-width:.0438305;stroke-linecap:butt;stroke-linejoin:miter;stroke-miterlimit:4;stroke-dasharray:none;stroke-opacity:1"/><path d="m205.318 190.361-6.306-.593 5.503-5.75.803 6.343M205.318 190.361l-3.83 5.106-1.955-2.807-2.596 1.794 2.075-4.686zM172.024 202.712l.938-4.346 3.631-1.752 1.024 2.902-5.593 3.196M172.024 202.712l-.022 1.488 3.766 4.423 1.85-9.107z" style="opacity:.5;fill:none;fill-opacity:1;stroke:#f0f0f5;stroke-width:.0438305;stroke-linecap:butt;stroke-linejoin:miter;stroke-miterlimit:4;stroke-dasharray:none;stroke-opacity:1"/><path d="m172.024 202.712-2.102-1.55.303-5.15 2.737 2.354z" style="opacity:.5;fill:none;fill-opacity:1;stroke:#f0f0f5;stroke-width:.0438305;stroke-linecap:butt;stroke-linejoin:miter;stroke-miterlimit:4;stroke-dasharray:none;stroke-opacity:1"/><path d="m172.962 198.366 3.631-1.752-6.368-.602zM179.522 195.166l-2.929 1.448 1.024 2.902 3.838-.114-1.933-4.236" style="opacity:.5;fill:none;fill-opacity:1;stroke:#f0f0f5;stroke-width:.0438305;stroke-linecap:butt;stroke-linejoin:miter;stroke-miterlimit:4;stroke-dasharray:none;stroke-opacity:1"/><path d="m183.507 190.45-6.855.705-.059 5.459 2.93-1.448zM183.507 190.45l-2.9-3.517-4.172.063.072 2.061 2.27.995z" style="opacity:.5;fill:none;fill-opacity:1;stroke:#f0f0f5;stroke-width:.0438305;stroke-linecap:butt;stroke-linejoin:miter;stroke-miterlimit:4;stroke-dasharray:none;stroke-opacity:1"/><path d="m183.507 190.45-4.73-.398-2.125 1.103zM180.607 186.933l4.82-4.45-5.221 1.589zM193.855 192.873l2.669-1.819-1.274-2.882-4.145 1.62z" style="opacity:.5;fill:none;fill-opacity:1;stroke:#f0f0f5;stroke-width:.0438305;stroke-linecap:butt;stroke-linejoin:miter;stroke-miterlimit:4;stroke-dasharray:none;stroke-opacity:1"/><path d="m196.937 194.454-.413-3.4-2.669 1.82 3.082 1.58 2.075-4.686-.54-2.635-3.222 1.04 1.274 2.881.413 3.4" style="opacity:.5;fill:none;fill-opacity:1;stroke:#f0f0f5;stroke-width:.0438305;stroke-linecap:butt;stroke-linejoin:miter;stroke-miterlimit:4;stroke-dasharray:none;stroke-opacity:1"/><path d="m198.473 187.133-6.881-1.142-.487 3.8 7.368-2.658M188.932 188.804l2.173.988-3.786.968-6.712-3.827z" style="opacity:.5;fill:none;fill-opacity:1;stroke:#f0f0f5;stroke-width:.0438305;stroke-linecap:butt;stroke-linejoin:miter;stroke-miterlimit:4;stroke-dasharray:none;stroke-opacity:1"/><path d="m187.32 190.76-6.713-3.827 2.9 3.517 3.812.31 1.719 6.057-1.671-2.294-3.86-4.073 3.812.31" style="opacity:.5;fill:none;fill-opacity:1;stroke:#f0f0f5;stroke-width:.0438305;stroke-linecap:butt;stroke-linejoin:miter;stroke-miterlimit:4;stroke-dasharray:none;stroke-opacity:1"/><path d="M189.038 196.817c-1.031.437-4.398 1.58-4.398 1.58l-5.118-3.231 7.845-.643z" style="opacity:.5;fill:none;fill-opacity:1;stroke:#f0f0f5;stroke-width:.0438305;stroke-linecap:butt;stroke-linejoin:miter;stroke-miterlimit:4;stroke-dasharray:none;stroke-opacity:1"/><path d="m188.134 199.254 3.574-1.015-2.67-1.422-4.398 1.58z" style="opacity:.5;fill:none;fill-opacity:1;stroke:#f0f0f5;stroke-width:.0438305;stroke-linecap:butt;stroke-linejoin:miter;stroke-miterlimit:4;stroke-dasharray:none;stroke-opacity:1"/><path d="m191.708 198.239 2.147-5.366-1.762.954-3.055 2.99zM189.917 202.488l-6.696.43 4.913-3.664 3.573-1.015zM189.917 202.488l2.122 5.655 4.336-4.343-2.233-1.194 5.025-2.801-9.25 2.683" style="opacity:.5;fill:none;fill-opacity:1;stroke:#f0f0f5;stroke-width:.0438305;stroke-linecap:butt;stroke-linejoin:miter;stroke-miterlimit:4;stroke-dasharray:none;stroke-opacity:1"/><path d="m199.167 199.805 3.963 5.071-6.755-1.076-2.233-1.194z" style="opacity:.5;fill:none;fill-opacity:1;stroke:#f0f0f5;stroke-width:.0438305;stroke-linecap:butt;stroke-linejoin:miter;stroke-miterlimit:4;stroke-dasharray:none;stroke-opacity:1"/><path d="m199.167 199.805 2.831-1.312 1.132 6.383-3.963-5.071" style="opacity:.5;fill:none;fill-opacity:1;stroke:#f0f0f5;stroke-width:.0438305;stroke-linecap:butt;stroke-linejoin:miter;stroke-miterlimit:4;stroke-dasharray:none;stroke-opacity:1"/><path d="m201.998 198.493 2.064-.669-2.573-2.357-2.322 4.338z" style="opacity:.5;fill:none;fill-opacity:1;stroke:#f0f0f5;stroke-width:.0438305;stroke-linecap:butt;stroke-linejoin:miter;stroke-miterlimit:4;stroke-dasharray:none;stroke-opacity:1"/><path d="m201.489 195.467-1.956-2.807-2.596 1.794 2.23 5.351z" style="opacity:.5;fill:none;fill-opacity:1;stroke:#f0f0f5;stroke-width:.0438305;stroke-linecap:butt;stroke-linejoin:miter;stroke-miterlimit:4;stroke-dasharray:none;stroke-opacity:1"/><path d="m196.937 194.454-3.082-1.58 5.312 6.931zM192.039 208.143l-6.265-.093.684-4.715 3.46-.847zM183.221 202.918l-1.617 2.027-.149-5.543 3.185-1.006z" style="opacity:.5;fill:none;fill-opacity:1;stroke:#f0f0f5;stroke-width:.0438305;stroke-linecap:butt;stroke-linejoin:miter;stroke-miterlimit:4;stroke-dasharray:none;stroke-opacity:1"/><path d="m181.455 199.402-1.933-4.236 5.118 3.23zM181.604 204.945l4.854-1.61 3.46-.847-6.697.43zM196.37 121.418l-5.13 8.675 6.789 2.935-1.292-5.8 2.98-.35-3.346-5.46" style="opacity:.5;fill:none;fill-opacity:1;stroke:#f0f0f5;stroke-width:.0438305;stroke-linecap:butt;stroke-linejoin:miter;stroke-miterlimit:4;stroke-dasharray:none;stroke-opacity:1"/><path d="m191.24 130.093 2.127 5.255 4.662-2.32z" style="opacity:.5;fill:none;fill-opacity:1;stroke:#f0f0f5;stroke-width:.0438305;stroke-linecap:butt;stroke-linejoin:miter;stroke-miterlimit:4;stroke-dasharray:none;stroke-opacity:1"/><path d="m198.029 133.028 1.688-6.15-2.98.35zM163.77 199.71l4.92 4.14-4.423 3.767-2.185-1.757 1.688-6.15M194.524 172.625l-4.24-3.104 3.024 6.078 3.46 1.388zM185.304 127.683s9.428 7.196 8.063 7.665c-1.364.469-6.773 2.016-6.773 2.016l-1.29-9.68" style="opacity:.5;fill:none;fill-opacity:1;stroke:#f0f0f5;stroke-width:.0438305;stroke-linecap:butt;stroke-linejoin:miter;stroke-miterlimit:4;stroke-dasharray:none;stroke-opacity:1"/><path d="m191.24 130.093-5.936-2.41 8.063 7.665-2.127-5.255M10.038 4.087l-2.157 2.31 2.365 8.344-.208-10.654M-10.64 8.107l3.077-5.585-6.539 1.293 3.462 4.292-5.066 1.47 1.604-5.762 3.462 4.292M67.72 192.589l6.537 17.229-5.919-8.227zM195.797 105.966l1.144.728.785 3.292-2.848 3.172zM194.384 121.78c.997 2.488 2.353 5.448 2.353 5.448l.495-8.621zM7.872 207.49l4.84-2.694-.882-4.067zM12.712 204.796l9.507 1.302-4.126-4.173-5.381 2.871M45.456 208.184l7.346-1.313-1.037-5.176-3.444.273z" style="opacity:.5;fill:none;fill-opacity:1;stroke:#f0f0f5;stroke-width:.0438305;stroke-linecap:butt;stroke-linejoin:miter;stroke-miterlimit:4;stroke-dasharray:none;stroke-opacity:1"/></svg>