<svg xmlns="http://www.w3.org/2000/svg" width="120" height="120" viewBox="0 0 31.75 31.75"><path d="M10.833 29.63a14.846 14.846 0 0 1-5.193-3.34c-2.51-2.5-3.98-5.685-4.272-9.258-.226-2.753.402-5.682 1.739-8.107 3.235-5.87 9.888-8.787 16.397-7.19 4.81 1.18 8.767 4.852 10.325 9.58 1.299 3.942.874 8.3-1.152 11.818-1.742 3.024-4.359 5.27-7.553 6.482-.326.124-.642.213-.757.212a.82.82 0 0 1-.633-.308c-.098-.134-.102-.206-.128-2.756-.026-2.54-.03-2.63-.137-2.983-.138-.457-.394-.946-.617-1.18a1.331 1.331 0 0 1-.17-.202c0-.012.137-.036.305-.054.168-.019.576-.088.907-.154 2.733-.548 4.362-1.91 5.064-4.238.311-1.032.448-2.789.29-3.742a5.725 5.725 0 0 0-1.093-2.574l-.31-.41.107-.394c.077-.285.113-.591.13-1.102.028-.777-.035-1.248-.26-1.96-.143-.455-.217-.505-.677-.456-.854.093-1.92.525-3.045 1.234l-.46.29-.247-.065c-1.736-.46-3.972-.54-5.819-.21-.3.054-.703.139-.893.189l-.346.09-.473-.297c-1.034-.65-2.092-1.095-2.865-1.202-.549-.076-.678-.041-.77.209-.22.594-.373 1.413-.374 1.992 0 .428.082 1.007.196 1.372l.091.294-.315.418c-.918 1.22-1.261 2.505-1.143 4.276.127 1.896.607 3.227 1.555 4.31.935 1.07 2.486 1.8 4.425 2.083.32.046.59.09.6.099.01.008-.058.1-.153.205-.325.36-.617 1.002-.697 1.536-.031.21-.036.214-.332.317-1.316.457-2.445.29-3.273-.484a6.047 6.047 0 0 1-.66-.8c-.45-.651-.902-1.08-1.39-1.322-.318-.157-.433-.188-.774-.205-.984-.052-1.034.348-.12.95.535.354.97.948 1.508 2.058.287.594.386.748.643 1.005.357.357.923.653 1.497.782.558.125 1.43.146 2.141.052.333-.044.61-.074.617-.066.007.007.02.661.03 1.452.016 1.369.012 1.448-.08 1.605a.812.812 0 0 1-.268.256c-.26.138-.545.111-1.118-.107z" style="display:inline;fill:#a5101f;fill-opacity:1;stroke-width:.0487797"/></svg>