<svg xmlns="http://www.w3.org/2000/svg" width="50" height="50" fill="none"><defs><filter id="a" width="1.005" height="1.004" x="0" y="0" style="color-interpolation-filters:sRGB"><feColorMatrix values="0.361446 0.36 0.361446 0 0 0.361446 0.36 0.361446 0 0 0.361446 0.36 0.361446 0 0 0 0 0 1 0"/></filter></defs><path fill="#212027" d="M0 50h50V0H0z"/><g style="display:inline;opacity:.5;filter:url(#a)" transform="matrix(-.29605 0 0 .29605 107.148 -38.76)"><circle cx="280.358" cy="225.835" r="56.548" style="display:inline;fill:#0b0b10;fill-opacity:1;stroke:#a5101f;stroke-width:1.08664;stroke-linejoin:round;stroke-miterlimit:4;stroke-dasharray:none;stroke-opacity:1;paint-order:fill markers stroke"/><path d="M281.094 272.321c-.118-.533-.32-1.2-.205-2.103.208-1.631 1.31-4.032 1.949-5.595.266-.653.52-1.428.523-1.921 0-.25-.056-.625-.134-.784a99.392 99.392 0 0 1-2.097 4.38c-.885 1.733-1.257 2.377-2.074 3.843.226.653.621 2.034.845 2.903.304-.099.992-.5 1.193-.723zm-1.995-4.425.468-.801c-.578-1.61-.849-2.162-.968-3.304-.097-.93.132-1.74.43-2.592.473-1.359 1.164-2.934 1.78-4.17.302-.604.414-.96.468-1.31.054-.349.005-.6-.015-.73-.011-.076-.076-.235-.12-.246-.045-.012-.065.026-.223.338-.852 1.693-1.26 2.481-2.242 4.159-.871 1.488-1.605 2.558-2.54 3.916a38.52 38.52 0 0 1 2.464 5.575c.016-.019.24-.394.498-.835zm-31.255-3.414c.113-.335.46-1.265 1.016-1.633.506-.335.746-.497 1.678-.567.93-.07 2.099.156 3.577.226 1.48.07 3.37-.143 4.69-.508 1.318-.366 4.067-1.548 6.525-3.675 2.459-2.128 6.694-6.654 8.014-8.44a56.608 56.608 0 0 0 3.562-5.158c.548-.907 1.5-2.388 1.406-2.634-.054-.14-.21-.13-.514-.108a6.745 6.745 0 0 1-.988-.032c-.167-.023-.945-.132-2.224-.96-1.28-.827-2.42-2.327-3.327-4-.908-1.672-1.686-4.063-2.114-5.187-.428-1.124-1.176-3.208-1.52-4.085-.342-.872-1.022-.797-1.753-.557-.388.127-2.504.812-16.468 6.899-2.569 1.12-5.749 2.5-7.066 3.07-3.103 1.34-3.107 1.343-3.323 1.861-.222.531-.257 2.656-.048 4.23.578 3.096 1.5 6.384 2.462 8.739.697 1.706 1.615 3.313 2.37 4.994 1.012 2.25 2.462 5.036 2.895 6.81.098.4.273 1.025.329 1.19.057.17.39.179.537.063.147-.116.22-.346.284-.539zm5.454-7.97a8.795 8.795 0 0 0-.309-1.739c-.454-1.48-1.211-2.914-1.582-3.52-.37-.605-.888-1.513-1.584-2.599-.695-1.086-1.439-2.463-1.757-3.387-.32-.923-.682-2.405-.666-4.349.016-1.943 1.082-4.002 2.324-5.322 1.242-1.32 3.025-2.267 4.914-2.766 1.89-.5 3.725-.248 4.854-.005 1.477.445 2.46 1.046 3.39 1.752.93.705 1.987 2.182 2.51 3.415.524 1.233.908 2.64.888 4.056-.02 1.415-.283 2.957-1.5 4.795-1.218 1.838-2.658 2.641-4.044 3.181-1.385.54-2.524.54-3.59.401-1.066-.138-2.089-.718-2.603-1.219a8.236 8.236 0 0 1-1.256-1.57c-.264-.45-.547-.915-1.014-1.717-.467-.802-.5-.98-1.366-.594-.866.386-1.02.584-.875.956.69 1.412 1.196 2.228 2.205 3.925 1.008 1.696 1.443 3.2 1.531 4.027.088.828.086 1.462-.093 2.29-.072.331-.461.906-.533 1.01.07-.262.167-.758.156-1.021zm40.366 7.65c.5-.35 1.384-1.206 1.03-2.457-.209-.733-.909-1.455-2.087-1.18-1.608-4.818-2.389-8.72-2.904-11.122-.516-2.4-2.053-9.288-2.3-10.379-.245-1.09-1.053-1.811-1.231-2.632-.14-.704-.066-.993.083-1.517.233-.832.367-1.6.4-2.372-.097.194-.234.345-.45.557-.216.212-.483.418-.9.762-.642.528-1.133.964-1.31 1.426-.175.463-.153.997-.022 1.49.09.34.29.819.757 1.277.467.459 1.096 1.153 1.33 1.813 2.59 7.296 3.438 13.123 5.247 22.036.299 1.46.492 2.11.75 2.45.323.43 1.105.198 1.607-.152zm-17.566-3.325c-.643-1.51-1.376-3.46-1.193-5.242.153-1.49 1.228-2.735 1.868-4.09.246-.52.645-1.308.757-1.55a.864.864 0 0 0 .021-.66c-.107-.26-.201-.433-.338-.215-.107.17-.668 1.115-.952 1.586a67.735 67.735 0 0 1-1.901 2.996c-.89 1.335-1.932 2.726-2.825 3.897.659.619 1.004.988 1.422 1.43.467.493.94 1.031 1.459 1.684.418.452.852 1.1 1.123 1.473.278-.394.738-.89.56-1.31zm34.854-8.115c.052-.588-.071-1.257-.46-1.695-.283-.32-.76-.497-1.186-.482-.405.014-.857.283-1.09.535-.215-.457-4.367-8.72-6.303-13.073-.243-.548-.442-.944-.803-1.304-.292-.29-.616-.486-1.055-.645a24.614 24.614 0 0 0-1.529-.496c-.19-.057-.438-.11-.622-.014-.221.115-.328.388-.417.62a11.1 11.1 0 0 0-.433 1.427c.383.094.718.178 1.372.341l1.169.291c2.02 3.264 3.914 6.473 5.528 9.179 2.426 4.069 3.77 6.215 4.036 6.626.148.23.31.316.512.328.257.016.542-.18.695-.334.33-.333.527-.638.586-1.304zm-26.412-3.418c-.201-.822-1.005-1.11-1.53-1.158.581-3.301 1.047-5.754 1.47-8.548.083-.547.09-.588-.446-1.246-1.176-1.443-.94-2.823-.848-3.162.093-.338.396-.786.428-.822.032-.036.077-.096.075-.137a.306.306 0 0 0-.055-.135c-.033-.054-.388-.611-.721-1.077-.232-.323-.684-.89-1.307-1.212-.485-.249-1.084-.314-1.54-.322-1.043-.018-1.973.639-1.973.639 1.68 2.93 3.36 5.718 4.736 8.255l-.335 5.208c-.155 2.413-.287 4.49-.324 5.117-.007.117-.006.199.044.266.134.182.61.246.92.195 1.175-.194 1.554-1.258 1.406-1.86zm11.89-11.85c.087-.36.23-1.088.51-2.367.28-1.278.564-2.706.657-3.168.173-.856.176-.855 1.058-1.765 0 0 .567-.57.91-.921-.054-1.058-.109-2.22-.179-3.21-.022-.323-.139-.566-.41-.834a62.572 62.572 0 0 0-2.38-1.982c-1.28 1.193-2.304 2.061-3.737 2.735 0 0 .449.28.63.447.92.848 1.049 1.322 1.126 3.39.038.999-.003 1.951-.04 3.243-.022.808-.053 1.515-.065 2.423-.006.456.068.887.283 1.204.32.473 1.143.684 1.638.806zm-47.404-4.51c15.336-6.638 15.96-6.907 16.3-7.075.34-.169.022-.205-.645-.62-.666-.415-1.488-.93-1.923-1.823-.436-.894-.402-1.472-.435-2.065-.033-.593.057-.827-.186-.866-.242-.04-.225.018-.269.17a49.01 49.01 0 0 0-.195.714l-.15.551h-5.099c-1.402 0-5.894.101-6.488.114-.595.013-1.366.012-1.366.012s-.08.837-.088 1.642c-.008.806.017 1.576.06 1.827.012.065.154-.154.598-.486.444-.332.89-.661 1.987-.96 1.096-.297 3.714-.367 5.56-.393l4.575-.064s-.005.087 0 .526c.006.44-.008.7-.07.753-.128.11-1.853.88-4.914 2.198a976.77 976.77 0 0 0-3.568 1.544c-3.226 1.408-4.18 1.91-4.854 1.89-.674-.022-1.049-.089-1.757-.641-.708-.553-.674-.827-.737-.827-.063 0-.301.47-.836 1.79-.536 1.32-1.213 1.843-1.41 1.843-.087 0 .153-.694.03-1.876-.124-1.183-.31-1.98-.12-3.053.25-1.417.418-1.456-.186-1.742-.604-.286-.708-.434-.934.217-.226.65-.632 1.908-.61 4.006.022 2.098-.63 3.217-1.122 3.962-.492.744-.58.562-.366 1.183.09.265.502 1.195.638 1.195.135 0 6.263-2.643 8.578-3.645 2.316-1.003 0 0 0 0zm59.296.674c.74-.293 1.8-.82 2.614-1.562.739-.673 1.375-1.452 1.828-2.256.657-1.166.757-2.521.781-3.82.013-.685-.159-1.392-.336-2.026-.177-.635-.527-1.325-.906-1.92s-.825-1.191-1.349-1.625c-.344-.285-.712-.607-.734-.626-.056-.048-.063-.148-.058-.225.071-1.163.092-2.225.06-3.337-.064-2.23-.117-4.364-.503-6.677-.385-2.313-.924-4.684-1.826-6.879-1.086-2.64-2.226-5.035-4.26-7.432-1.46-1.721-3.36-3.589-5.421-4.875-2.65-1.653-5.143-2.702-8.693-3.501-4.013-.905-7.883-1.293-10.745-1.181a88.99 88.99 0 0 0-4.174.242c-.928.075-1.618.187-2.013.24.312 1.025.84 2.36 1.258 3.54.607 1.715 1.268 3.63 1.814 5.147.33.915.775 2.458 1.116 3.449.36 1.042.538 1.556.702 1.754.164.197.472.464.663.584.538.337.895.672 1.273 1.065.508.53.91 1.069 1.251 1.709.274.513.409.854.494 1.065.535-.138 1.469-.383 2.293-.51.824-.126 2.408-.285 3.612-.211 1.625.099 2.607.119 4.804.876 1.782.615 3.528 1.77 4.633 2.914 1.545 1.602 2.35 3.082 2.877 4.902.516 1.786.4 3.728.18 5.574-.137 1.143-.62 2.525-.92 3.327.689.521 1.116.84 1.671 1.263.771.586 1.536 1.18 2.306 1.767.623.474 1.712 1.306 1.874 1.416.32-.423.604-.918.862-1.385.45-.816.8-1.655 1.13-2.535.304-.81.505-1.507.665-2.147.003.323-.023.99-.077 1.413-.07.564-.264 1.647-.392 2.139-.44 1.683-.834 2.444-1.468 3.572-.915 1.628-2.59 3.348-3.51 4.002-.366.259-.822.567-1.13.726-.256.134-.447.289-.51.432-.095.219-.096.806-.061 1.331.035.54.015.61.367.704.965.208 1.847.253 2.777.286 1.732.063 3.56-.068 5.18-.709zm-4.85-.84c2.33-.523 4.432-1.3 5.445-3.613.406-.989.737-1.448 1.286-1.226.56.227.33 1.265.072 1.811-.647 1.369-2.548 2.444-3.62 2.741-.968.268-2.106.345-3.184.287zm-17.656-.236c.723-.625 1.285-3.49.369-4.814-1.026-1.482-3.405-2.283-5.192-1.514-1.218.524-2.441 1.15-3.759 1.305-1.132.134-2.303-.044-3.405-.339-.951-.254-1.895-.637-2.693-1.213-.718-.518-1.366-1.182-1.799-1.955-.442-.789-.647-1.887-.742-2.609-.137-1.463-.078-2.343.46-3.589.296-.684.838-1.608 1.174-2.265.135-.264-.13-.285-.776-.577-.608-.275-.609-.456-.906-.075-.79 1.015-1.391 2.43-1.705 3.857-.267 1.217-.256 3.284.098 4.868.354 1.58.985 3.078 1.981 4.438.257.3.311.196.59-.033.245-.2.473-.414.711-.62l.378-.323c1.702 1.071 3.547 1.585 5.609 1.77.594 1.03.807 1.425 1.36 2.392 0 0 .476-.248.909-.419.432-.17 1.296-.334 1.986-.268s1.323.218 1.987.66c.664.442 1.316 1.367 1.768 2.03.067.098.165.25.2.296.034.047.062.083.146.026.083-.056.528-.405 1.251-1.03zm-38.115-8.693c.015-1.43.146-2.724.068-2.804-.078-.081-.556-.111-.758-.111-.203 0-.527.023-.586.083-.06.06-.465 1.13-.465 2.782 0 1.653.378 3.048.43 3.1.051.05.401.057.716 0 .315-.057.592-.143.646-.208.06-.074-.066-1.413-.05-2.843zm43.817 1.693c1.883-.759 3.615-1.957 4.797-3.754 1.086-1.653 1.646-3.708 1.692-5.811.015-.68-.003-1.675-.192-2.558-.226-1.053-.652-1.989-.969-2.604-.622-1.208-1.833-2.65-3.146-3.515-1.563-1.031-3.15-1.589-5.323-1.796-1.465-.14-3.106-.153-4.448.056-.731.114-1.665.306-2.342.532.095.482.123 1.554.07 2.182-.101 1.18-.348 1.958-.854 3.118-.421.966-1.951 2.438-2.163 2.75-.07.103-.08.439-.109.72a31.036 31.036 0 0 0-.106 1.681c-.06 1.595.259 3.238 1.011 4.625a9.325 9.325 0 0 0 3.566 3.613c1.33.747 2.305 1.082 3.547 1.273 1.511.233 3.425.111 4.969-.511zm-10.455-3.377c-.426-.583-.782-1.056-1.071-1.658-.238-.496-.481-.834-.578-1.718-.01-.088-.038-.287.008-.787.2.172.42.269.762.302.34.034.83-.006 1.013-.163.213-.185.32-.532.35-1.72.028-1.186.252-2.653 1.336-3.972 1.084-1.32 2.433-1.962 4.213-2.215 1.78-.254 3.126.142 4.27.806 1.144.664 2.2 1.908 2.674 2.9.475.993.41 1.79.39 2.628-.022.838-.254 1.75-.23 1.943.009.071.038.194.097.235.299.21.916.178 1.408.05.491-.127.773-.3.935-.46-.104.51-.173.823-.348 1.312-.175.49-.458 1.17-.773 1.686-.457.751-1.118 1.567-1.862 2.16-.992.79-2.14 1.452-3.367 1.778-1.213.322-2.631.29-3.763.126-1.089-.22-2.085-.64-3.014-1.192-.914-.542-1.808-1.259-2.45-2.041zm7.518-.99c2.932-.112 4.582-2.471 4.488-5.223-.094-2.751-2.78-4.767-5.528-4.46-2.748.307-4.64 2.068-4.638 5.034.003 2.966 2.746 4.761 5.678 4.65zm-11.204 4.289c.735-.154 1.506-.64 2.167-1.112.312-.223.754-.629.84-.725a13.888 13.888 0 0 1-1.001-1.268c-.122.093-.512.403-.755.571-.522.362-1.084.656-1.693.778-.893.178-1.902.278-2.732-.1a3.397 3.397 0 0 1-1.696-1.807c-.347-.896-.263-1.968.044-2.88.394-1.171 1.447-1.966 2.611-2.256a4.951 4.951 0 0 1 1.673-.11c.48.05.749.126.956.15 0-.191 0-.584.025-.909.024-.29.031-.576.056-.827-.482-.085-1.426-.168-1.967-.116-1.27.121-2.308.328-3.31 1.129-.874.699-1.677 1.73-1.973 2.846-.346 1.302-.234 2.814.353 4.026.5 1.033 1.452 1.906 2.505 2.363 1.194.519 2.617.513 3.897.247zM240.55 214.88c-.391 2.262-.483 3.853-.452 3.895.029.038.567.226.567.226.584.232 2.159 1.497 2.318 1.656.16.16.51.093 1.013-.155a53.368 53.368 0 0 0 2.885-1.591c.829-.505 2.603-1.612 2.603-1.612s-.727-1.31-.926-1.708c-.2-.397-.71-1.302-.667-1.485.043-.182.39-.552.792-.89.402-.338 1.172-.776 1.551-.86.38-.083.523-.211.814.455.29.666 1.354 2.706 1.354 2.706s1.719-.902 3.75-1.896c2.032-.994 3.53-1.393 4.954-1.62 1.424-.227 2.906-.27 4.08-.295-.233-.674-.677-1.817-.748-3.576-.07-1.76.727-3.738 1.847-5.228 1.121-1.49 3.116-2.597 4.894-3.032 1.778-.436 3.076-.353 4.754-.137-1.035-3.063-1.747-4.978-2.463-7.121a239.898 239.898 0 0 0-2.17-6.22c-3.1.55-6.509 1.424-10.184 3.118-3.676 1.693-7.147 3.944-10.69 7.155-3.541 3.212-5.898 6.947-7.265 9.713-1.367 2.766-2.219 6.24-2.61 8.502zm35.21-.684c2.026-.75 3.536-2.196 4.196-4.347.66-2.15.24-4.689-1.329-6.533-1.57-1.844-4.154-2.851-6.994-2.116-2.84.734-4.293 2.393-5.085 4.14-.792 1.749-.638 4.342.09 5.83.727 1.49 2.08 2.823 3.552 3.347 1.51.537 3.543.43 5.57-.32zm-5.416-.818c-1.071-.447-1.85-.92-2.572-2.402-.438-.898-.58-1.993-.473-2.379.049-.176.333.545.681 1.077.596.91 1.248 1.907 2.3 2.349 1.359.57 2.57.381 3.173.24.854-.202 1.358-.006 1.35.427-.009.432-.38.66-1.1.914-.72.253-2.288.22-3.36-.226z" style="display:inline;fill:#eeaf22;fill-opacity:1;stroke:none;stroke-width:.496504;stroke-miterlimit:4;stroke-dasharray:none;stroke-opacity:1"/><path d="M310.252 248.024c.151-.103.125-.326.026-.565-.772-1.864-.946-2.403-1.077-2.923-.073-.291-.007-.426.117-.422.213.008.754.637 1.41 1.76.655 1.123.368.68.773 1.35 1.945-1.172 3.842-2.84 5.08-4.062 2.17-2.147 4.24-4.351 5.944-6.77.268-.376.142-.494-.075-.862-.124-.21-.462-.702-.539-1.067-.078-.372.513.273.855.525.342.252.515.181.644.01.858-1.132 1.448-1.919 2.097-2.928.598-.929.986-1.515 1.29-2.252.066-.16.09-.296.063-.414a1.255 1.255 0 0 0-.172-.355c-.14-.2-.43-.42-.674-.596-.38-.276-.519-.365-1.218-.713.536-.018.908.003 1.359.052.322.035.743.128.958.173.37.077.648-.16.972-.856.345-.74.678-1.5 1.127-2.92.509-1.61.946-2.999 1.285-4.899.123-.693-.648-1.025-1.102-1.147-1.562-.42-3.76-1.257-4.342-1.565a2.68 2.68 0 0 1-.667-.455c.292.066.85.21 1.373.288 1.432.211 3.132.46 4.3.46.391 0 1.027-.386 1.142-.763.47-1.546.96-4.088 1.268-7.152.483-4.808.102-9.661-.905-14.47-1.425-6.804-4.047-12.289-5.54-13.924-1.494.75-4.567 2.08-5.69 2.383-1.746.47-3.705.778-5.298.603 1.73-.263 3.53-.666 5.163-1.376 1.663-.723 3.327-1.606 4.61-2.888.072-.072.163-.15.163-.258 0-.197-.662-1.486-.976-1.849-.182-.21-.466-.164-.871.028-.746.353-2.133.747-2.632.747-.59 0-.192-.07.583-.554a9.34 9.34 0 0 0 1.215-.89c.438-.39.765-.79.765-.952-1.078-1.943-2.934-4.371-4.357-6.022-1.374-1.595-4.022-4.21-4.638-4.289-.495-.063-1.86.655-3.1 1.155-1.029.415-1.998.625-2.093.615-.217-.023.247-.147.955-.46.462-.205 1.294-.69 1.87-1.136.512-.397 1.074-.891 1.39-1.356-.906-1.09-3.152-2.923-4.844-4.244-1.53-1.193-3.785-2.76-4.785-3.314-.449-.248-1.08-.644-1.367-.32-.8.901-1.23 1.474-2.159 2.485-.912.992-3.168 3.065-3.479 3.065-.315 0 .935-1.82 1.461-3.01.816-1.848.999-2.118 1.33-3.24.223-.752-.388-1.477-1.039-1.795-2.047-.998-4.475-2.062-6.808-2.837-3.313-1.101-6.443-1.77-8.323-1.855-.393-.018-.823.057-1.234.699-.214.334-.454.611-.534.615-.08.005-.219-.255-.308-.574-.172-.615-.186-.94-.318-1.065-.153-.145-1.052-.218-1.585-.294-.633-.09-1.23-.143-1.91-.187.538 1.238 1.088 3.356 1.22 4.84.092 1.052.08 1.808.014 2.313-.083.63-.437-.924-.934-2.427-.425-1.287-.784-2.334-1.44-3.362-.33-.519-.824-1.185-1.23-1.374-.46-.214-4.37-.358-6.56-.367-2.569-.01-5.024-.018-7.699.366 0 0 .483.923.693 1.4.237.538.557 1.273.638 1.646-.479-.565-.85-1.024-1.395-1.607-.453-.485-1.464-1.316-1.535-1.256-1.498.031-3.35.165-5.004.428-2.197.35-4.397.794-6.499 1.524-.13.045-.243.08-.372.175-.22.161-.271.3 1.266 4.142.9 2.25 1.255 3.183 1.773 4.424.18.432-.54.12-1.271-.595-1.689-1.647-3.2-3.662-4.482-5.478-.319-.445-1.005-1.481-1.005-1.481a70.585 70.585 0 0 0-5.143 1.642c-1.524.56-2.956 1.136-4.493 1.88-.31.15-.522.445-.312.884.24.493.92 1.3 1.26 1.718.865 1.062 1.876 2.277 3.045 3.72-1.692-1.486-2.779-2.582-4.243-3.811-.615-.516-1.642-1.191-2.12-1.14-.285.03-1.43.403-2.505.993-1.105.605-2.35 1.232-3.348 2.029 2.42 1.257 3.871 2.191 5.785 3.324a175.827 175.827 0 0 1 5.3 3.229c-3.29-1.503-5.242-2.428-7.903-3.552-1.163-.491-2.43-1.111-3.456-1.477-.337-.12-.88-.302-1.328-.254-.863.093-1.688.57-2.394 1.022-1.565 1-2.551 1.739-3.988 2.986 5.994 1.66 8.814 2.754 12.772 5.057 3.743 2.178 7.257 4.896 10.126 8.14 2.647 2.99 4.923 7.247 6.313 10.184.987 2.082 2.056 4.74 2.751 6.342 5.952-4.885 12.117-7.996 19.689-9.75 8.568-1.984 16.898-.736 22.266.589 5.367 1.325 15.982 6.65 19.086 18.424 1.155 4.38 1.698 8.384 1.737 10.176.027 1.245-.012 2.944.01 3.748.006.197 0 .983.053 1.112.053.13.195.37.375.505 1.297 1.378 2.061 2.529 2.608 4.784.546 2.255.487 5.987-2.05 8.598-3.34 2.913-6.8 3.435-10.362 3.4 1.414 2.735 4.266 8.533 6.417 12.608.546-.276.793-.487.945-.59z" style="display:inline;fill:#a5101f;fill-opacity:1;stroke-width:.331002"/></g></svg>