<svg xmlns="http://www.w3.org/2000/svg" width="120" height="120" viewBox="0 0 31.75 31.75"><path d="M15.35.081A15.626 15.626 0 0 0-.276 15.707 15.626 15.626 0 0 0 15.35 31.332a15.626 15.626 0 0 0 15.625-15.625A15.626 15.626 0 0 0 15.35.08Zm-1.097 4.764c.351.002.977.027 1.051.064.065.033.144.148.197.238.105.179.162.36.23.583.08.261.137.53.15.421.01-.087.012-.218-.002-.4a3.409 3.409 0 0 0-.195-.84c.109.008.204.017.306.032.085.013.229.026.253.051.022.022.024.078.051.185.014.055.037.1.05.1.012 0 .05-.05.085-.107.066-.112.135-.125.198-.122.3.015.802.131 1.333.322.373.135.762.32 1.09.492.104.055.202.181.166.312-.053.194-.082.241-.213.562-.084.206-.284.522-.234.522.05 0 .411-.36.557-.532.15-.175.218-.275.346-.431.046-.056.147.013.219.056.16.096.521.368.766.575.271.229.63.547.776.736-.05.08-.14.166-.223.235a1.7 1.7 0 0 1-.3.197c-.113.054-.187.076-.152.08.015.002.17-.035.335-.107.199-.086.417-.211.496-.2.099.014.523.467.743.744.228.286.525.708.698 1.045 0 .028-.053.097-.123.165-.06.058-.134.113-.194.154-.124.084-.188.096-.093.096.08 0 .301-.068.42-.13.066-.033.111-.04.14-.004.05.063.157.286.157.32 0 .02-.015.033-.026.045-.206.223-.472.376-.739.501-.261.123-.55.193-.826.239.255.03.568-.023.848-.105.18-.052.672-.283.911-.413.24.283.659 1.235.887 2.415.161.834.223 1.677.145 2.51-.05.532-.128.973-.203 1.241-.018.065-.12.133-.183.133-.187 0-.46-.044-.688-.08-.084-.014-.174-.039-.22-.05.035.035.06.052.107.079.093.053.445.198.695.271.073.021.196.079.176.2-.054.329-.124.57-.206.85a3.943 3.943 0 0 1-.18.506c-.052.12-.097.161-.156.148a1.562 1.562 0 0 0-.153-.03c-.072-.009-.132-.012-.218-.009a1.033 1.033 0 0 1 .303.227c.01.016.024.044.028.062.004.02 0 .044-.01.072-.049.128-.11.229-.207.39a7.663 7.663 0 0 1-.335.508c-.021.03-.049.042-.104-.002-.054-.044-.149-.156-.136-.091.012.063.066.149.086.185.035.064.055.084.012.15-.273.42-.604.802-.952 1.174a4.793 4.793 0 0 1-.814.705c-.064-.117-.018-.04-.123-.235-.105-.194-.192-.304-.226-.305-.02 0-.03.023-.019.073.021.09.049.184.173.507.016.042.02.08-.004.098-.024.018-.064.055-.152.103-.344-.707-.8-1.713-1.027-2.187.57.006 1.124-.085 1.66-.59.405-.453.415-1.1.327-1.492a1.662 1.662 0 0 0-.417-.83.232.232 0 0 1-.06-.087c-.01-.023-.008-.16-.01-.193-.003-.14.004-.434-.001-.65-.006-.311-.094-1.006-.278-1.766-.498-2.042-2.197-2.966-3.057-3.196-.86-.23-2.193-.446-3.565-.102-1.213.304-2.2.844-3.153 1.691-.111-.277-.282-.738-.44-1.1-.223-.51-.588-1.248-1.011-1.766A6.708 6.708 0 0 0 8.174 8.65c-.634-.4-1.085-.59-2.045-.878.23-.216.388-.344.638-.518.113-.078.246-.16.384-.177a.499.499 0 0 1 .212.044c.165.063.368.171.554.256.426.195.739.356 1.265.617-.31-.215-.563-.378-.848-.56-.307-.197-.54-.36-.927-.577.16-.138.36-.247.536-.352.173-.103.356-.168.402-.173.076-.009.24.109.339.198.235.213.409.403.68.661-.188-.25-.35-.46-.488-.645-.054-.072-.163-.212-.202-.298-.034-.076 0-.127.05-.153.246-.13.476-.23.72-.327.27-.107.629-.228.823-.284 0 0 .11.18.161.256.205.315.447.665.718.95.117.125.232.179.204.104-.084-.215-.14-.377-.284-.768-.247-.666-.239-.69-.203-.718.02-.016.039-.022.06-.03a5.686 5.686 0 0 1 1.04-.265 5.71 5.71 0 0 1 .801-.074c.012-.01.173.134.246.218.087.101.147.181.223.279a2.21 2.21 0 0 0-.102-.286c-.033-.082-.11-.243-.11-.243.428-.066.82-.065 1.232-.063zm1.686 6.568c.458-.02 1.078.048 1.72.205.569.139.968.32 1.392.607.33.223.634.547.868.846.326.416.509.831.683 1.29.144.38.23.791.292 1.192.062.402.07.772.08 1.159.006.193.003.377-.01.579 0 .013 0 .03.01.039.004.003.062.059.117.108.084.075.156.179.216.282.06.104.117.223.145.333.029.11.056.233.054.352-.004.225-.02.46-.125.662-.073.14-.174.275-.293.392-.13.129-.3.22-.418.27-.26.112-.553.135-.83.124a2.289 2.289 0 0 1-.445-.05c-.056-.016-.053-.029-.058-.122a.716.716 0 0 1 .01-.23c.01-.026.04-.053.081-.076.05-.028.123-.081.181-.126a2.473 2.473 0 0 0 .797-1.314c.02-.085.052-.273.063-.37.01-.074.013-.19.012-.246a3.575 3.575 0 0 1-.106.373c-.053.152-.109.298-.181.44a2.08 2.08 0 0 1-.138.24c-.026-.02-.2-.164-.3-.246l-.37-.307-.267-.219a2.94 2.94 0 0 0 .147-.577c.036-.32.054-.657-.029-.967a1.982 1.982 0 0 0-1.202-1.356c-.352-.131-.51-.135-.77-.152a2.898 2.898 0 0 0-.578.037c-.132.022-.281.064-.367.088-.014-.036-.035-.095-.08-.184a1.3 1.3 0 0 0-.2-.297 1.04 1.04 0 0 0-.203-.184.564.564 0 0 1-.107-.102c-.026-.034-.054-.123-.112-.304-.054-.172-.126-.44-.178-.598-.088-.264-.194-.596-.291-.893-.067-.205-.152-.437-.201-.614.063-.01.173-.029.322-.042.23-.02.4-.03.669-.042zm-1.197.124a44 44 0 0 1 .347 1.08c.115.371.229.703.394 1.235-.268-.038-.476-.052-.76.023-.285.076-.605.268-.784.527-.18.258-.307.601-.296.906.011.305.082.504.12.62a4.46 4.46 0 0 0-.654.052c-.228.04-.468.109-.793.281-.325.172-.6.329-.6.329s-.17-.354-.217-.47c-.047-.115-.07-.093-.13-.079a.782.782 0 0 0-.249.15.47.47 0 0 0-.127.154c-.007.032.075.189.107.258s.148.296.148.296-.284.192-.417.28a8.352 8.352 0 0 1-.462.275c-.08.044-.136.055-.162.027-.025-.027-.278-.247-.371-.287 0 0-.086-.032-.09-.039a4.672 4.672 0 0 1 .071-.676c.063-.392.2-.995.419-1.475a5.75 5.75 0 0 1 1.163-1.684 6.63 6.63 0 0 1 1.712-1.242 6.187 6.187 0 0 1 1.63-.54zm.384 2.528c.32.01.6.168.789.408.251.32.318.76.213 1.134a1.107 1.107 0 0 1-.672.754c-.325.13-.65.148-.892.055-.236-.09-.453-.322-.569-.58-.116-.258-.141-.708-.014-1.011.126-.304.359-.591.814-.719.113-.032.225-.045.331-.041zm1.987.77c.122-.002.246.006.363.018.348.036.602.132.853.311.21.15.404.4.504.61.05.107.119.269.155.452.03.153.033.325.03.443a2.033 2.033 0 0 1-.27 1.009c-.19.311-.467.52-.769.65a1.482 1.482 0 0 1-1.364-.131 1.564 1.564 0 0 1-.57-.627 1.685 1.685 0 0 1-.162-.802c.002-.064.008-.194.017-.292.004-.049.006-.107.017-.125.034-.054.28-.31.347-.477.08-.201.12-.336.136-.54a1.933 1.933 0 0 0-.011-.38 2.381 2.381 0 0 1 .724-.12zm-3.012.554c-.017.067.006.257.076.413.115.257.24.34.411.417.172.077.423.083.538.039.116-.044.175-.084.176-.159.002-.075-.079-.109-.216-.074a.76.76 0 0 1-.508-.042c-.168-.076-.273-.25-.368-.407-.056-.092-.101-.217-.109-.187zm3.372.271a1.099 1.099 0 0 0-.202.013c-.285.044-.5.155-.674.384-.174.23-.21.484-.215.69-.005.205-.021.266-.055.298-.03.027-.108.034-.163.028a.195.195 0 0 1-.122-.052c-.008.086-.003.121-.002.136.016.154.055.212.093.298.046.105.103.187.171.288.103.136.246.26.393.354.148.096.308.169.482.207.182.028.409.034.603-.022a1.47 1.47 0 0 0 .837-.683 1.797 1.797 0 0 0 .18-.52.316.316 0 0 1-.15.08c-.079.022-.178.027-.225-.01-.01-.006-.014-.028-.016-.04-.004-.034.034-.192.037-.337.003-.146.013-.284-.063-.456a1.247 1.247 0 0 0-.428-.503.942.942 0 0 0-.482-.153zm.033.23a.81.81 0 0 1 .722.775c.015.477-.25.887-.72.906-.469.02-.908-.292-.908-.806 0-.515.302-.82.742-.874a.748.748 0 0 1 .164-.002zm-3.151.556c.018.005.042.025.091.05.104.05.146.053.124.1-.054.113-.14.273-.188.392-.086.216-.095.37-.074.623.016.125.049.316.12.453.069.134.173.249.288.338.127.1.278.167.43.21.177.052.365.083.546.06.211-.027.407-.136.602-.227.286-.133.667.005.831.263.147.23.057.727-.059.835a3.778 3.778 0 0 1-.2.179c-.014.01-.018.003-.024-.005-.006-.008-.02-.035-.031-.052-.073-.115-.177-.275-.283-.352a.619.619 0 0 0-.319-.114.742.742 0 0 0-.318.046c-.07.03-.145.073-.145.073-.09-.168-.123-.237-.218-.415a1.86 1.86 0 0 1-.898-.307l-.06.056c-.039.035-.076.073-.115.108-.044.04-.053.057-.094.006a2.128 2.128 0 0 1-.317-.77 2.429 2.429 0 0 1-.016-.845 1.8 1.8 0 0 1 .273-.669c.024-.033.036-.041.054-.036zm1.124.029c.087-.01.238.005.315.02-.004.043-.005.093-.009.143-.004.056-.004.125-.004.158-.033-.004-.076-.017-.153-.026a.733.733 0 0 0-.268.019.595.595 0 0 0-.418.391.815.815 0 0 0-.007.5.573.573 0 0 0 .272.314c.132.065.294.048.437.017a.71.71 0 0 0 .271-.135c.04-.03.102-.083.121-.1l.071.105c.025.036.074.097.09.116a1.26 1.26 0 0 1-.135.126c-.106.081-.23.166-.347.192-.205.047-.433.047-.624-.042a.849.849 0 0 1-.401-.41 1.118 1.118 0 0 1-.057-.699 1 1 0 0 1 .316-.494c.16-.138.327-.174.53-.195zm-2.204.978c.038.007.024.048.03.15.004.103 0 .203.069.358.07.156.201.245.308.317.107.072.157.078.103.108-.055.029-.154.075-2.61 1.227-.37.174-1.352.632-1.374.632-.022 0-.088-.162-.102-.207-.034-.108-.02-.076.059-.206.078-.129.183-.323.18-.687a2.089 2.089 0 0 1 .097-.695c.036-.113.053-.087.15-.037.096.05.07.056.03.302-.031.186 0 .324.018.53.02.204-.018.325-.005.325.032 0 .14-.091.226-.32s.124-.31.134-.31c.01 0 .005.047.118.143a.378.378 0 0 0 .282.111c.108.004.26-.083.777-.328l.571-.268c.49-.228.766-.362.787-.38.01-.01.011-.055.011-.131v-.092l-.732.011c-.296.004-.715.017-.89.069a.784.784 0 0 0-.319.166c-.07.058-.094.096-.096.084a2.915 2.915 0 0 1-.01-.317c.002-.14.014-.284.014-.284s.124 0 .219-.003c.095-.002.815-.02 1.04-.02h.816l.024-.096.03-.124c.008-.026.005-.036.044-.03zm-2.423.076c.033 0 .11.005.122.02.012.014-.008.238-.011.486-.002.248.018.48.008.493-.008.011-.053.026-.103.036-.05.01-.107.009-.115 0a1.953 1.953 0 0 1-.069-.538c0-.286.065-.472.075-.482.009-.01.061-.015.093-.015zm7.94.395c.153.132.242.21.382.344a.216.216 0 0 1 .065.144c.011.172.02.374.03.557l-.147.16c-.14.158-.142.158-.17.306-.014.08-.06.328-.105.55-.044.221-.067.348-.081.41-.08-.02-.211-.057-.262-.14a.393.393 0 0 1-.046-.208c.002-.158.007-.28.011-.42.006-.225.012-.39.006-.563-.012-.359-.033-.441-.18-.588a.97.97 0 0 0-.101-.078c.23-.117.393-.267.599-.474zm-4.756.662c.049.01.09.045.117.12.055.153.175.514.244.71.068.194.193.609.338.9.146.29.328.55.533.693.205.143.33.163.356.166.027.004.11.01.158.005.05-.004.074-.005.082.02.016.042-.137.299-.224.456a9.89 9.89 0 0 1-.57.895c-.212.31-.89 1.095-1.284 1.464-.394.37-.834.574-1.045.638-.211.063-.514.1-.751.088-.237-.012-.424-.051-.573-.04-.149.013-.188.041-.269.1-.089.063-.144.224-.162.282-.01.033-.022.073-.046.093-.023.02-.077.02-.086-.01a4.08 4.08 0 0 1-.052-.207c-.07-.308-.302-.79-.464-1.181-.121-.292-.268-.57-.38-.867a8.9 8.9 0 0 1-.394-1.515c-.033-.273-.028-.642.008-.734.035-.09.036-.09.532-.323l1.132-.533c2.236-1.055 2.575-1.174 2.637-1.196a.314.314 0 0 1 .164-.025zm6.875.151c-.055.015-.097.092-.145.22-.163.402-.5.536-.873.627.173.01.355-.003.51-.05.172-.051.476-.238.58-.475.041-.095.078-.275-.011-.314a.086.086 0 0 0-.06-.007zm-4.765.623a.551.551 0 0 1 .246.055c.1.056.172.155.21.21.053.082.11.178.115.187.005.01.009.017.009.024 0 .007-.007.018-.012.024a.564.564 0 0 0-.069.142.67.67 0 0 0 .136.55c.086.113.085.12.071.215-.067.485-.142.91-.235 1.483.084.008.213.058.245.201a.279.279 0 0 1-.226.323c-.05.009-.125-.002-.147-.034-.007-.012-.008-.026-.007-.046l.052-.888.054-.904c-.22-.44-.49-.923-.758-1.432 0 0 .148-.113.315-.11zm1.055.176a1.91 1.91 0 0 1-.064.412.49.49 0 0 0-.014.263c.029.142.158.267.198.457.039.189.285 1.384.368 1.8.082.417.207 1.093.465 1.93.188-.049.3.077.334.204.057.217-.085.365-.165.426s-.205.101-.257.027c-.041-.06-.072-.172-.12-.425-.29-1.547-.426-2.557-.84-3.823a.964.964 0 0 0-.214-.315.492.492 0 0 1-.12-.221.457.457 0 0 1 .003-.259c.028-.08.107-.155.21-.247.067-.06.11-.095.144-.132a.365.365 0 0 0 .072-.097zm-4.693.008a1.4 1.4 0 0 0-.434.05c-.303.086-.588.25-.787.479-.199.229-.37.586-.372.923-.003.337.055.595.106.755.051.16.17.399.282.587.111.189.194.346.253.451.06.105.18.354.253.61.031.11.049.257.05.302a.808.808 0 0 1-.025.178.728.728 0 0 0 .085-.176c.03-.143.03-.253.015-.397a1.993 1.993 0 0 0-.245-.699c-.161-.294-.242-.436-.353-.68-.023-.065.002-.1.14-.166.139-.067.144-.036.219.103l.162.298c.043.078.12.185.201.272a.772.772 0 0 0 .417.211c.171.024.353.024.575-.07.222-.093.453-.232.648-.551.195-.319.237-.586.24-.832a1.898 1.898 0 0 0-.142-.703c-.084-.214-.253-.47-.402-.593a1.577 1.577 0 0 0-.543-.304 1.843 1.843 0 0 0-.343-.048zm6.543.512a.26.26 0 0 1 .05.01c.103.034.163.054.245.087.07.027.123.061.17.112.057.062.089.13.128.226.31.755.975 2.188 1.01 2.268a.273.273 0 0 1 .174-.093.24.24 0 0 1 .19.084.425.425 0 0 1 .073.294.328.328 0 0 1-.093.226c-.025.026-.07.06-.112.058-.032-.002-.058-.017-.082-.057a51.858 51.858 0 0 1-.646-1.15c-.258-.47-.562-1.026-.885-1.592l-.187-.05-.22-.06c.014-.067.039-.161.07-.247.014-.04.03-.088.066-.108a.089.089 0 0 1 .05-.009zm-3.347 2.34c.014-.005.026.02.038.053a.16.16 0 0 1-.003.115c-.017.042-.081.178-.12.269-.103.235-.275.45-.3.709-.03.31.088.647.191.91.029.072-.045.158-.09.227-.043-.065-.112-.177-.179-.256a4.29 4.29 0 0 0-.234-.292c-.067-.077-.122-.14-.227-.248a11.961 11.961 0 0 0 .757-1.196l.152-.275c.006-.01.01-.015.015-.016zm.613.998c.007.002.018.03.02.043.003.022.011.066.003.127a.795.795 0 0 1-.075.227c-.099.214-.21.488-.285.723a1.084 1.084 0 0 0-.07.45c.02.198.063.294.156.573l-.075.139a4.142 4.142 0 0 1-.08.145 6.976 6.976 0 0 0-.394-.967 10.344 10.344 0 0 0 .766-1.401c.025-.054.028-.061.035-.059zm.335 1.245a.425.425 0 0 1 .021.136c0 .086-.041.22-.084.333-.102.271-.278.688-.312.97-.018.157.014.273.033.366a.647.647 0 0 1-.191.125 8.96 8.96 0 0 0-.135-.503c.13-.255.19-.366.332-.667.09-.193.232-.506.336-.76z" style="display:inline;mix-blend-mode:normal;fill:#a5101f;fill-opacity:1;stroke:none;stroke-width:.147531"/></svg>