<svg xmlns="http://www.w3.org/2000/svg" width="2560" height="1080" viewBox="0 0 677.333 285.75"><path d="m473.141 19.158-27.35-10.451 1.33-14.568ZM604.104 17.95l-13.289 9.858 2.159-18.094 10.299.826zM586.09 25.73l-11.705-2.626s-4.098 18.246-3.296 18.345c.801.098 18.614 5.347 18.614 5.347l-14.978-12.16ZM609.096 33.62l-4.02-6.891-10.29 5.457.607 13.47zM621.833 13.147l-12.162-2.618-3.05 13.427z" style="opacity:.5;fill:none;fill-opacity:1;stroke:#f0f0f5;stroke-width:.1;stroke-linecap:butt;stroke-linejoin:miter;stroke-miterlimit:4;stroke-dasharray:none;stroke-opacity:1"/><path d="m473.141 19.158-3.984-5.416L480.352-.373l9.256 5.323-16.467 14.208-26.02-25.02 15.461-2.565 6.575 22.17 3.984 5.415M584.632 15.476l8.342-5.762-.17-8.68-9.09 2.578.918 11.864M592.974 9.714c-.403 2.391-2.159 18.094-2.159 18.094l-4.725-2.078-11.705-2.626zM604.104 17.95l.972 8.779-14.26 1.08 13.288-9.859" style="opacity:.5;fill:none;fill-opacity:1;stroke:#f0f0f5;stroke-width:.1;stroke-linecap:butt;stroke-linejoin:miter;stroke-miterlimit:4;stroke-dasharray:none;stroke-opacity:1"/><path d="m609.671 10.529-6.398.011.83 7.41 2.518 6.006 3.05-13.427" style="opacity:.5;fill:none;fill-opacity:1;stroke:#f0f0f5;stroke-width:.1;stroke-linecap:butt;stroke-linejoin:miter;stroke-miterlimit:4;stroke-dasharray:none;stroke-opacity:1"/><path d="m621.833 13.147-12.737 20.472-4.02-6.89-.972-8.779 2.517 6.006 15.212-10.81M621.833 13.147l13.421 12.663 2.231-13.94-7.46 2.732-5.31-11.207-2.125 1.739zM683.102 6.29l-17.801 15.052-2.952-14.565 9.637 5.305Z" style="opacity:.5;fill:none;fill-opacity:1;stroke:#f0f0f5;stroke-width:.1;stroke-linecap:butt;stroke-linejoin:miter;stroke-miterlimit:4;stroke-dasharray:none;stroke-opacity:1"/><path d="m683.102 6.29-11.116 5.792-4.852-16.71ZM671.986 12.082l-9.637-5.305-4.5-2.9 9.285-8.504 4.852 16.709" style="opacity:.5;fill:none;fill-opacity:1;stroke:#f0f0f5;stroke-width:.1;stroke-linecap:butt;stroke-linejoin:miter;stroke-miterlimit:4;stroke-dasharray:none;stroke-opacity:1"/><path d="m662.35 6.777-14.037 13.444-7.468-10.033 17.004-6.312 4.5 2.901" style="opacity:.5;fill:none;fill-opacity:1;stroke:#f0f0f5;stroke-width:.1;stroke-linecap:butt;stroke-linejoin:miter;stroke-miterlimit:4;stroke-dasharray:none;stroke-opacity:1"/><path d="m661.91 21.49 3.391-.148-2.952-14.565z" style="opacity:.5;fill:none;fill-opacity:1;stroke:#f0f0f5;stroke-width:.1;stroke-linecap:butt;stroke-linejoin:miter;stroke-miterlimit:4;stroke-dasharray:none;stroke-opacity:1"/><path d="m661.91 21.49.44-14.713-14.037 13.444ZM686.207 32.547l-3.105-26.258-17.801 15.053 10.754.435 10.152 10.77M686.207 32.547l-1.635 11.772-12.433 8.478 9.086-10.439-3.28-6.56z" style="opacity:.5;fill:none;fill-opacity:1;stroke:#f0f0f5;stroke-width:.1;stroke-linecap:butt;stroke-linejoin:miter;stroke-miterlimit:4;stroke-dasharray:none;stroke-opacity:1"/><path d="m672.14 52.797-5.268-13.147 14.353 2.708z" style="opacity:.5;fill:none;fill-opacity:1;stroke:#f0f0f5;stroke-width:.1;stroke-linecap:butt;stroke-linejoin:miter;stroke-miterlimit:4;stroke-dasharray:none;stroke-opacity:1"/><path d="m657.84 52.835 9.032-13.185 14.353 2.708-3.28-6.56-19.33-1.156z" style="opacity:.5;fill:none;fill-opacity:1;stroke:#f0f0f5;stroke-width:.1;stroke-linecap:butt;stroke-linejoin:miter;stroke-miterlimit:4;stroke-dasharray:none;stroke-opacity:1"/><path d="m664.47 57.229 20.102-12.91-12.433 8.478-5.267-13.147-9.032 13.185z" style="opacity:.5;fill:none;fill-opacity:1;stroke:#f0f0f5;stroke-width:.1;stroke-linecap:butt;stroke-linejoin:miter;stroke-miterlimit:4;stroke-dasharray:none;stroke-opacity:1"/><path d="m664.47 57.229-19.708.225 3.982-11.146 6.07 8.767 3.026-2.24z" style="opacity:.5;fill:none;fill-opacity:1;stroke:#f0f0f5;stroke-width:.1;stroke-linecap:butt;stroke-linejoin:miter;stroke-miterlimit:4;stroke-dasharray:none;stroke-opacity:1"/><path d="m657.84 52.835.774-18.193-9.87 11.666 6.07 8.767z" style="opacity:.5;fill:none;fill-opacity:1;stroke:#f0f0f5;stroke-width:.1;stroke-linecap:butt;stroke-linejoin:miter;stroke-miterlimit:4;stroke-dasharray:none;stroke-opacity:1"/><path d="m648.744 46.308-11.741-5.506 9.125-4.3 12.486-1.86zM644.762 57.454l-9.549-9.023 13.531-2.123zM627.116 55.7l-15.313 1.916 6.855-17.1 16.555 7.915-8.097 7.269" style="opacity:.5;fill:none;fill-opacity:1;stroke:#f0f0f5;stroke-width:.1;stroke-linecap:butt;stroke-linejoin:miter;stroke-miterlimit:4;stroke-dasharray:none;stroke-opacity:1"/><path d="m637.003 40.802-1.79 7.63 13.531-2.124-11.741-5.506-8.368-6.46-9.977 6.174 16.555 7.915 1.79-7.629.536-9.705 5.94 2.145 2.65 3.26-9.126 4.3" style="opacity:.5;fill:none;fill-opacity:1;stroke:#f0f0f5;stroke-width:.1;stroke-linecap:butt;stroke-linejoin:miter;stroke-miterlimit:4;stroke-dasharray:none;stroke-opacity:1"/><path d="m646.128 36.503-2.649-3.26 15.135 1.399zM637.54 31.097l-15.312-6.244-12.636 14.79 15.05-7.081 3.993 1.78 8.368 6.46.536-9.705" style="opacity:.5;fill:none;fill-opacity:1;stroke:#f0f0f5;stroke-width:.1;stroke-linecap:butt;stroke-linejoin:miter;stroke-miterlimit:4;stroke-dasharray:none;stroke-opacity:1"/><path d="m628.635 34.342-9.977 6.174-9.066-.873 15.05-7.081zM622.228 24.853l-.395-11.706 13.421 12.663 2.285 5.287zM647.82 23.866l.493-3.645-7.468-10.033-5.59 15.622zM640.845 10.188l-3.36 1.682-2.23 13.94 5.59-15.622" style="opacity:.5;fill:none;fill-opacity:1;stroke:#f0f0f5;stroke-width:.1;stroke-linecap:butt;stroke-linejoin:miter;stroke-miterlimit:4;stroke-dasharray:none;stroke-opacity:1"/><path d="m621.833 13.147.395 11.706-13.132 8.766 12.737-20.472" style="opacity:.5;fill:none;fill-opacity:1;stroke:#f0f0f5;stroke-width:.1;stroke-linecap:butt;stroke-linejoin:miter;stroke-miterlimit:4;stroke-dasharray:none;stroke-opacity:1"/><path d="m622.228 24.853-12.636 14.79-14.199 6.013 13.703-12.037zM618.658 40.516l-9.066-.873 2.211 17.973zM594.786 32.186l-3.97-4.378-4.726-2.078-11.365 8.907zM658.433 66.557l16.462 19.632 10.994-20.251-1.317-21.62-20.102 12.91-6.037 9.33M55.843-17.68l8.805 20.51-9.286 8.503-6.002-25.896ZM64.648 2.83l15.968 10.916L68.937-5.01 85.2-16.24l-17.587-4.206Z" style="opacity:.5;fill:none;fill-opacity:1;stroke:#f0f0f5;stroke-width:.1;stroke-linecap:butt;stroke-linejoin:miter;stroke-miterlimit:4;stroke-dasharray:none;stroke-opacity:1"/><path d="m85.2-16.24-4.584 29.986L68.937-5.01Z" style="opacity:.5;fill:none;fill-opacity:1;stroke:#f0f0f5;stroke-width:.1;stroke-linecap:butt;stroke-linejoin:miter;stroke-miterlimit:4;stroke-dasharray:none;stroke-opacity:1"/><path d="M80.616 13.746 69.5 19.54l-4.852-16.71Z" style="opacity:.5;fill:none;fill-opacity:1;stroke:#f0f0f5;stroke-width:.1;stroke-linecap:butt;stroke-linejoin:miter;stroke-miterlimit:4;stroke-dasharray:none;stroke-opacity:1"/><path d="m69.5 19.539-9.638-5.305-4.5-2.9 9.286-8.504L69.5 19.539" style="opacity:.5;fill:none;fill-opacity:1;stroke:#f0f0f5;stroke-width:.1;stroke-linecap:butt;stroke-linejoin:miter;stroke-miterlimit:4;stroke-dasharray:none;stroke-opacity:1"/><path d="m-9.773 130.855 7.102-22.961-16.338 5.613-1.111 13.644 10.347 3.704" style="opacity:.5;fill:none;fill-opacity:1;stroke:#f0f0f5;stroke-width:3.5e-06;stroke-linecap:butt;stroke-linejoin:miter;stroke-miterlimit:4;stroke-dasharray:none;stroke-opacity:1"/><path d="m-6.436 82.624-11.099 23.11 11.72-2.197S9.335 114.91 9.72 113.968c.385-.942-16.156-31.344-16.156-31.344z" style="opacity:.5;fill:none;fill-opacity:1;stroke:#f0f0f5;stroke-width:.1;stroke-linecap:butt;stroke-linejoin:miter;stroke-miterlimit:4;stroke-dasharray:none;stroke-opacity:1"/><path d="m-2.67 107.894-3.145-4.357-13.194 9.97 16.338-5.613" style="opacity:.5;fill:none;fill-opacity:1;stroke:#f0f0f5;stroke-width:3.5e-06;stroke-linecap:butt;stroke-linejoin:miter;stroke-miterlimit:4;stroke-dasharray:none;stroke-opacity:1"/><path d="m-5.815 103.537 15.532 10.297s-4.29 7.151-4.579 5.82c-.29-1.33-7.809-11.76-7.809-11.76z" style="opacity:.5;fill:none;fill-opacity:1;stroke:#f0f0f5;stroke-width:.1;stroke-linecap:butt;stroke-linejoin:miter;stroke-miterlimit:4;stroke-dasharray:none;stroke-opacity:1"/><path d="m5.007 119.79-14.78 11.065 7.102-22.961z" style="opacity:.5;fill:none;fill-opacity:1;stroke:#f0f0f5;stroke-width:.1;stroke-linecap:butt;stroke-linejoin:miter;stroke-miterlimit:4;stroke-dasharray:none;stroke-opacity:1"/><path d="m-9.773 130.855 11.04 13.31-25.912 8.31z" style="opacity:.5;fill:none;fill-opacity:1;stroke:#f0f0f5;stroke-width:3.5e-06;stroke-linecap:butt;stroke-linejoin:miter;stroke-miterlimit:4;stroke-dasharray:none;stroke-opacity:1"/><path d="m2.722 167.519 11.132-5.394-8.786-6.267L-5.3 159.1l8.02 8.418" style="opacity:.5;fill:none;fill-opacity:1;stroke:#f0f0f5;stroke-width:.1;stroke-linecap:butt;stroke-linejoin:miter;stroke-miterlimit:4;stroke-dasharray:none;stroke-opacity:1"/><path d="M5.068 155.858-5.3 159.1l6.567-14.936 3.8 11.693 17.089-8.698-8.303 14.965-8.786-6.267M26.5 229.328l24.755 2.177-7.134 18.052zM.568 253.83l-5.893 14.962s17.924-.62 18.075-1.268c.15-.649.245-14.545.245-14.545zM67.862 268.553l-8.802 29.974-13.004-4.693ZM94.188 238.551l16.767 7.64-5.612 12.373-15.457-6.531 11.924-1.974zM16.177 201.062 1.37 214.394l22.577 7.22ZM-17.756 279.176l6.388 15.082 24.691 2.75zM9.354 277.113l8.772-6.931 4.227 11.402zM27.69 262.269l-3.149 5.06 6.34 2.32.197-7.598zM36.705 211.387l7.614 11.023 11.816 1.259.864-16.171zM48.354 261.281l-8.109 17.745 22.19-6.506zM87.714 267.256l-14.992 11.88 26.35 19.457 6.536-14.183-16.701-3.602zM22.157 147.16l4.975 17.693-10.095 4.394-3.183-7.122z" style="opacity:.5;fill:none;fill-opacity:1;stroke:#f0f0f5;stroke-width:.1;stroke-linecap:butt;stroke-linejoin:miter;stroke-miterlimit:4;stroke-dasharray:none;stroke-opacity:1"/><path d="M6.117 134.068c-.042-2.513-1.11-14.278-1.11-14.278l-14.78 11.065 11.04 13.31zM-6.436 82.624l15.301 6.842.51 10.103.342 14.265zM21.316 103.199l12.642-28.604L8.865 89.466l.566 10.045zM99.071 298.593l-23.905-4.382-2.444-15.074ZM67.862 268.553l-5.428 3.967-14.08-11.239 5.351-9.239 14.157 16.511-21.806 25.28-5.811-14.807 22.19-6.506 5.427-3.967" style="opacity:.5;fill:none;fill-opacity:1;stroke:#f0f0f5;stroke-width:.1;stroke-linecap:butt;stroke-linejoin:miter;stroke-miterlimit:4;stroke-dasharray:none;stroke-opacity:1"/><path d="m40.245 279.026-9.364-9.378.197-7.597 17.276-.77-8.109 17.745M31.078 262.051l9.379-9.364 7.897 8.594z" style="opacity:.5;fill:none;fill-opacity:1;stroke:#f0f0f5;stroke-width:.1;stroke-linecap:butt;stroke-linejoin:miter;stroke-miterlimit:4;stroke-dasharray:none;stroke-opacity:1"/><path d="m40.457 252.687 3.664-3.13 9.584 2.485-5.351 9.24zM44.121 249.557l7.134-18.052 2.53 16.276-.08 4.261z" style="opacity:.5;fill:none;fill-opacity:1;stroke:#f0f0f5;stroke-width:.1;stroke-linecap:butt;stroke-linejoin:miter;stroke-miterlimit:4;stroke-dasharray:none;stroke-opacity:1"/><path d="m53.786 247.781 16.198-17.07-6.435-5.222-5.246 14.367-7.048-8.351 2.53 16.276" style="opacity:.5;fill:none;fill-opacity:1;stroke:#f0f0f5;stroke-width:.1;stroke-linecap:butt;stroke-linejoin:miter;stroke-miterlimit:4;stroke-dasharray:none;stroke-opacity:1"/><path d="m56.135 223.669-4.88 7.836 7.048 8.351 5.246-14.367-7.414-1.82M41.775 172.952l-5.714 6.835 7.03 10.623 6.922-9.825zM36.061 179.787l-8.762 2.086 5.883 3.445zM34.664 178.21l-7.365 3.663-10.262-12.626 10.095-4.394z" style="opacity:.5;fill:none;fill-opacity:1;stroke:#f0f0f5;stroke-width:.1;stroke-linecap:butt;stroke-linejoin:miter;stroke-miterlimit:4;stroke-dasharray:none;stroke-opacity:1"/><path d="m34.664 178.21 1.397 1.577-8.762 2.086zM33.417 158.01l-3.416-6.228-7.844-4.622 4.975 17.693zM27.69 262.269l-10.054-1.348-4.642-7.942 6.416-2.853 8.28 12.143" style="opacity:.5;fill:none;fill-opacity:1;stroke:#f0f0f5;stroke-width:.1;stroke-linecap:butt;stroke-linejoin:miter;stroke-miterlimit:4;stroke-dasharray:none;stroke-opacity:1"/><path d="m27.69 262.269 3.388-.218 9.379-9.364-21.047-2.561zM27.69 262.269l-3.149 5.06-11.765.24 4.86-6.649z" style="opacity:.5;fill:none;fill-opacity:1;stroke:#f0f0f5;stroke-width:.1;stroke-linecap:butt;stroke-linejoin:miter;stroke-miterlimit:4;stroke-dasharray:none;stroke-opacity:1"/><path d="m17.636 260.92-4.642-7.941-.218 14.591zM-2.323 249.197l-1.854 5.343-1.148 14.252L.568 253.83z" style="opacity:.5;fill:none;fill-opacity:1;stroke:#f0f0f5;stroke-width:.1;stroke-linecap:butt;stroke-linejoin:miter;stroke-miterlimit:4;stroke-dasharray:none;stroke-opacity:1"/><path d="m-4.177 254.54-4.675.534-9.611 12.954 6.419 4.75 6.719-3.986z" style="opacity:.5;fill:none;fill-opacity:1;stroke:#f0f0f5;stroke-width:3.5e-06;stroke-linecap:butt;stroke-linejoin:miter;stroke-miterlimit:4;stroke-dasharray:none;stroke-opacity:1"/><path d="m3.858 218.23-8.999 2.976 2.886 8.435s13.58-4.425 13.573-4.829c-.007-.403-7.46-6.582-7.46-6.582z" style="opacity:.5;fill:none;fill-opacity:1;stroke:#f0f0f5;stroke-width:.1;stroke-linecap:butt;stroke-linejoin:miter;stroke-miterlimit:4;stroke-dasharray:none;stroke-opacity:1"/><path d="m3.858 218.23-2.487-3.836-6.512 6.812 8.999-2.976M1.37 214.394l-4.618-5.74-6.325 3.416 4.432 9.136z" style="opacity:.5;fill:none;fill-opacity:1;stroke:#f0f0f5;stroke-width:.1;stroke-linecap:butt;stroke-linejoin:miter;stroke-miterlimit:4;stroke-dasharray:none;stroke-opacity:1"/><path d="m-12.519 204.929-1.354 15.856 8.732.421-7.378-16.277M16.916 226.255l-2.954-7.945-2.752 6.329 4.385 9.716z" style="opacity:.5;fill:none;fill-opacity:1;stroke:#f0f0f5;stroke-width:.1;stroke-linecap:butt;stroke-linejoin:miter;stroke-miterlimit:4;stroke-dasharray:none;stroke-opacity:1"/><path d="m13.962 218.31-12.591-3.916 2.487 3.836 7.352 6.409zM23.948 221.615l2.19 15.151-9.222-10.511-2.954-7.945zM23.948 221.615l12.479-5.847-10.66-9.078-2.313 5.294-7.277-10.922 7.771 20.553M38.214 206.37l-7.621-4.9 2.59-16.152 5.565 11.904z" style="opacity:.5;fill:none;fill-opacity:1;stroke:#f0f0f5;stroke-width:.1;stroke-linecap:butt;stroke-linejoin:miter;stroke-miterlimit:4;stroke-dasharray:none;stroke-opacity:1"/><path d="m38.748 197.222 4.344-6.812-7.03-10.623-2.88 5.531 5.566 11.904M38.214 206.37l-7.621-4.9-4.827 5.22 10.94 4.697zM25.766 206.69l10.66 9.078 7.893 6.642-7.614-11.023z" style="opacity:.5;fill:none;fill-opacity:1;stroke:#f0f0f5;stroke-width:.1;stroke-linecap:butt;stroke-linejoin:miter;stroke-miterlimit:4;stroke-dasharray:none;stroke-opacity:1"/><path d="m36.427 215.768.92 14.266-10.848-.706-2.55-7.713zM44.32 222.41l-2.282 8.004-4.69-.38-.921-14.266z" style="opacity:.5;fill:none;fill-opacity:1;stroke:#f0f0f5;stroke-width:.1;stroke-linecap:butt;stroke-linejoin:miter;stroke-miterlimit:4;stroke-dasharray:none;stroke-opacity:1"/><path d="m56.135 223.669-4.88 7.836-9.217-1.091 2.281-8.004 11.816 1.259M105.608 284.41l12.863-8.694-7.343-9.25-5.566 10.27-12.136-6.02 3.187 7.138z" style="opacity:.5;fill:none;fill-opacity:1;stroke:#f0f0f5;stroke-width:.1;stroke-linecap:butt;stroke-linejoin:miter;stroke-miterlimit:4;stroke-dasharray:none;stroke-opacity:1"/><path d="m93.426 270.716-5.712-3.46 1.193 13.552 16.701 3.602-8.995-6.556z" style="opacity:.5;fill:none;fill-opacity:1;stroke:#f0f0f5;stroke-width:.1;stroke-linecap:butt;stroke-linejoin:miter;stroke-miterlimit:4;stroke-dasharray:none;stroke-opacity:1"/><path d="m93.426 270.716 7.613-8.608-11.959-5.053-1.366 10.201ZM101.04 262.108l10.088 4.358-5.566 10.27-12.136-6.02zM91.18 237.39l3.008 1.161 7.622 11.508-11.924 1.974zM89.08 257.055l16.263 1.509-15.457-6.531z" style="opacity:.5;fill:none;fill-opacity:1;stroke:#f0f0f5;stroke-width:.1;stroke-linecap:butt;stroke-linejoin:miter;stroke-miterlimit:4;stroke-dasharray:none;stroke-opacity:1"/><path d="m105.343 258.564 5.785 7.902-10.089-4.358-11.959-5.053 16.263 1.509M44.583 106.237l5.102-21.92-12.929 17.606-2.798-27.328-12.642 28.604ZM119.96 255.005l-4.137-4.959-10.48 8.518 5.785 7.902z" style="opacity:.5;fill:none;fill-opacity:1;stroke:#f0f0f5;stroke-width:.1;stroke-linecap:butt;stroke-linejoin:miter;stroke-miterlimit:4;stroke-dasharray:none;stroke-opacity:1"/><path d="m115.823 250.046 13.547-2.908-6.55-5.776-11.865 4.83-5.612 12.372zM110.382 224.944l-8.61 8.15-10.593 4.295 3.009 1.162 16.767 7.64-.573-21.247" style="opacity:.5;fill:none;fill-opacity:1;stroke:#f0f0f5;stroke-width:.1;stroke-linecap:butt;stroke-linejoin:miter;stroke-miterlimit:4;stroke-dasharray:none;stroke-opacity:1"/><path d="m129.37 247.138-13.547 2.908 4.138 4.959 10.818 12.671-1.409-20.538 13.308.108-5.697-15.824-14.16 9.94 6.55 5.776M118.47 275.716l-12.862 8.694 7.859-.622 12.644-.362z" style="opacity:.5;fill:none;fill-opacity:1;stroke:#f0f0f5;stroke-width:.1;stroke-linecap:butt;stroke-linejoin:miter;stroke-miterlimit:4;stroke-dasharray:none;stroke-opacity:1"/><path d="m-17.756 279.176 19.7.112-7.269-10.496-6.72 3.986-6.418-4.75.707 11.148" style="opacity:.5;fill:none;fill-opacity:1;stroke:#f0f0f5;stroke-width:3.5e-06;stroke-linecap:butt;stroke-linejoin:miter;stroke-miterlimit:4;stroke-dasharray:none;stroke-opacity:1"/><path d="m1.944 279.288 11.38 17.72-31.08-17.832ZM9.354 277.113l3.97 19.895 9.029-15.424-13-4.471M9.354 277.113l3.422-9.543 5.35 2.612-8.772 6.93" style="opacity:.5;fill:none;fill-opacity:1;stroke:#f0f0f5;stroke-width:.1;stroke-linecap:butt;stroke-linejoin:miter;stroke-miterlimit:4;stroke-dasharray:none;stroke-opacity:1"/><path d="m9.354 277.113-14.679-8.321 18.1-1.222-3.421 9.543" style="opacity:.5;fill:none;fill-opacity:1;stroke:#f0f0f5;stroke-width:.1;stroke-linecap:butt;stroke-linejoin:miter;stroke-miterlimit:4;stroke-dasharray:none;stroke-opacity:1"/><path d="m9.354 277.113-7.41 2.175-7.269-10.496 14.679 8.32M1.944 279.288l11.38 17.72-3.97-19.895-7.41 2.175M46.056 293.834l-5.811-14.808-3.6 5.287zM36.644 284.313l-14.291-2.73 2.013 9.28z" style="opacity:.5;fill:none;fill-opacity:1;stroke:#f0f0f5;stroke-width:.1;stroke-linecap:butt;stroke-linejoin:miter;stroke-miterlimit:4;stroke-dasharray:none;stroke-opacity:1"/><path d="m22.353 281.584 8.528-11.936 9.364 9.378-3.6 5.287-14.292-2.73" style="opacity:.5;fill:none;fill-opacity:1;stroke:#f0f0f5;stroke-width:.1;stroke-linecap:butt;stroke-linejoin:miter;stroke-miterlimit:4;stroke-dasharray:none;stroke-opacity:1"/><path d="m22.353 281.584-4.227-11.402 6.415-2.853 6.34 2.32zM-12.77 280.402l5.679 2.653 6.702-3.12-12.38.467M16.91 28.76l4.972-12.04 8.579-8.865-3.66 13.147-9.89 7.757 2.323 4.948 14.07 1.025-6.504-13.73-9.89 7.757M-6.436 82.624l15.301 6.842-2.87-17.226-6.719 3.986-6.419-4.75.707 11.148M33.958 74.595 5.995 72.24l18.101-1.222 9.862 3.577" style="opacity:.5;fill:none;fill-opacity:1;stroke:#f0f0f5;stroke-width:.1;stroke-linecap:butt;stroke-linejoin:miter;stroke-miterlimit:4;stroke-dasharray:none;stroke-opacity:1"/><path d="M33.958 74.595 8.865 89.466 5.995 72.24l27.963 2.355M412.701 297.615l2.097-16.409-20.746-2.718 1.028 8.325zM380.974 281.912l13.078-3.424 2.582-9.98-17.009-14.383s4.008 11.763 3.998 12.518c-.01.756-2.65 15.269-2.65 15.269z" style="opacity:.5;fill:none;fill-opacity:1;stroke:#f0f0f5;stroke-width:.1;stroke-linecap:butt;stroke-linejoin:miter;stroke-miterlimit:4;stroke-dasharray:none;stroke-opacity:1"/><path d="m395.08 286.813-14.106-4.901 13.078-3.424 1.028 8.325M390.887 289.782l.789 12.341 21.025-4.508-17.62-10.802zM390.887 289.782l-9.913-7.87 14.106 4.901z" style="opacity:.5;fill:none;fill-opacity:1;stroke:#f0f0f5;stroke-width:.1;stroke-linecap:butt;stroke-linejoin:miter;stroke-miterlimit:4;stroke-dasharray:none;stroke-opacity:1"/><path d="m363.85 291.518 17.124-9.606-.378 14.919-20.394 2.291z" style="opacity:.5;fill:none;fill-opacity:1;stroke:#f0f0f5;stroke-width:.1;stroke-linecap:butt;stroke-linejoin:miter;stroke-miterlimit:4;stroke-dasharray:none;stroke-opacity:1"/><path d="m380.596 296.83 11.08 5.293-.79-12.34-9.912-7.871zM379.625 254.125l-24.655 7.622 16.184 4.927 9.82 15.238 2.508-15.318-3.857-12.47M407.195 255.04c-.201.942 7.603 26.166 7.603 26.166l-20.746-2.718 2.582-9.98z" style="opacity:.5;fill:none;fill-opacity:1;stroke:#f0f0f5;stroke-width:.1;stroke-linecap:butt;stroke-linejoin:miter;stroke-miterlimit:4;stroke-dasharray:none;stroke-opacity:1"/><path d="M379.625 254.125s-24.228-11.98-24.221-12.515c.007-.534-6.325-27.998-6.325-27.998l16.355 16.504zM343.14 250.138l-.28 32.59-7.487-20.533zM342.86 282.728l18.366-5.11-10.663-12.425-7.702 17.535" style="opacity:.5;fill:none;fill-opacity:1;stroke:#f0f0f5;stroke-width:.1;stroke-linecap:butt;stroke-linejoin:miter;stroke-miterlimit:4;stroke-dasharray:none;stroke-opacity:1"/><path d="m350.563 265.193-7.705-3.304.004 20.839M361.226 277.617l19.748 4.295-9.82-15.238z" style="opacity:.5;fill:none;fill-opacity:1;stroke:#f0f0f5;stroke-width:.1;stroke-linecap:butt;stroke-linejoin:miter;stroke-miterlimit:4;stroke-dasharray:none;stroke-opacity:1"/><path d="m361.226 277.617 2.624 13.901 17.124-9.606z" style="opacity:.5;fill:none;fill-opacity:1;stroke:#f0f0f5;stroke-width:.1;stroke-linecap:butt;stroke-linejoin:miter;stroke-miterlimit:4;stroke-dasharray:none;stroke-opacity:1"/><path d="m342.86 282.728 20.99 8.79-3.648 7.604-8.015-5.143-9.326-11.251 20.99 8.79-2.625-13.9-18.365 5.11-8.996-6.926-13.48 9.58 11.78-1.854 2.58 7.246 8.116-8.046" style="opacity:.5;fill:none;fill-opacity:1;stroke:#f0f0f5;stroke-width:.1;stroke-linecap:butt;stroke-linejoin:miter;stroke-miterlimit:4;stroke-dasharray:none;stroke-opacity:1"/><path d="m334.744 290.774 17.443 3.205-9.326-11.251-8.117 8.046M334.744 290.774l-9.042 13.307 26.485-10.102-17.443-3.205M194.899 303.071l-30.807-5.389.815-13.318 10.14 9.418 6.663-3.066zM229.927 272.726l9.327-9.253 1.685 13.593zM229.927 272.726l-5.855-9.687 8.178-7.894 7.004 8.328-9.327 9.253M198.162 263.013l22.226 23.082 3.684-23.056z" style="opacity:.5;fill:none;fill-opacity:1;stroke:#f0f0f5;stroke-width:.1;stroke-linecap:butt;stroke-linejoin:miter;stroke-miterlimit:4;stroke-dasharray:none;stroke-opacity:1"/><path d="m229.927 272.726-9.54 13.37 3.685-23.057z" style="opacity:.5;fill:none;fill-opacity:1;stroke:#f0f0f5;stroke-width:.1;stroke-linecap:butt;stroke-linejoin:miter;stroke-miterlimit:4;stroke-dasharray:none;stroke-opacity:1"/><path d="m213.074 302.32-14.912-39.307 22.226 23.082-7.314 16.225M128.577 48.424s11.867-24.284 12.401-24.28c.535.005 27.97-6.454 27.97-6.454L152.52 34.122zM132.394 11.92l-32.591-.127L120.3 4.21Z" style="opacity:.5;fill:none;fill-opacity:1;stroke:#f0f0f5;stroke-width:.1;stroke-linecap:butt;stroke-linejoin:miter;stroke-miterlimit:4;stroke-dasharray:none;stroke-opacity:1"/><path d="m120.3 4.21 3.956-10.253 8.138 17.964zM106.687 2.765l-6.884 9.028L120.3 4.21l-13.613-1.445" style="opacity:.5;fill:none;fill-opacity:1;stroke:#f0f0f5;stroke-width:.1;stroke-linecap:butt;stroke-linejoin:miter;stroke-miterlimit:4;stroke-dasharray:none;stroke-opacity:1"/><path d="m99.803 11.793-8.693 21.03-5.1-.04-.473-24.31 14.265 3.32-8.692 21.03 13.889-2.688-5.197-18.342 6.885-9.027-9.643-13.435L98.953 1.1l-7.234 2.613 8.083 8.08" style="opacity:.5;fill:none;fill-opacity:1;stroke:#f0f0f5;stroke-width:.1;stroke-linecap:butt;stroke-linejoin:miter;stroke-miterlimit:4;stroke-dasharray:none;stroke-opacity:1"/><path d="m91.72 3.714-6.183 4.76 14.266 3.32-8.083-8.08" style="opacity:.5;fill:none;fill-opacity:1;stroke:#f0f0f5;stroke-width:.1;stroke-linecap:butt;stroke-linejoin:miter;stroke-miterlimit:4;stroke-dasharray:none;stroke-opacity:1"/><path d="M91.72 3.714 85.2-16.24l-4.584 29.986L91.72 3.714M286.907 33.687l1.148-12.27 5.658 9.659zM295.116 17.355l7.402 3.613 8.165-10.92-5.928-6.187zM323.652 14.594s2.273-11.532 1.384-11.459c-.89.074-11.828 4.348-11.828 4.348l-2.525 2.565zM241.864 37.617l6.319-4.462 5.43-15.465-16.427 16.432z" style="opacity:.5;fill:none;fill-opacity:1;stroke:#f0f0f5;stroke-width:.1;stroke-linecap:butt;stroke-linejoin:miter;stroke-miterlimit:4;stroke-dasharray:none;stroke-opacity:1"/><path d="m304.755 3.861 5.928 6.187 2.525-2.565-8.774-13.963zM430.446-.445l4.21 29.2-7.746-17.083-11.698-6.1 15.234-6.017M293.713 31.076l10.045 6.542-7.647-13.47-8.056-2.73zM388.674 11.014l-5.563-7.803 20.94 2.795zM323.652 14.594l2.61 17.065 4.204-20.645-5.563-7.803zM430.446-.445l16.675-5.416-5.824-11.55-14.39-5.034 3.54 22 15.344 9.152 1.33-14.568M442.409 21.619l3.394-1.528 1.74 28.492-1.337-6.357-4.135-13.087z" style="opacity:.5;fill:none;fill-opacity:1;stroke:#f0f0f5;stroke-width:.1;stroke-linecap:butt;stroke-linejoin:miter;stroke-miterlimit:4;stroke-dasharray:none;stroke-opacity:1"/><path d="m439.64 8.181-9.194-8.626 15.345 9.152Z" style="opacity:.5;fill:none;fill-opacity:1;stroke:#f0f0f5;stroke-width:.1;stroke-linecap:butt;stroke-linejoin:miter;stroke-miterlimit:4;stroke-dasharray:none;stroke-opacity:1"/><path d="m439.64 8.181-3.31 4.186-4.013 1.371-1.87-14.183 9.194 8.626M481.57 299.463l15.392-5.602-2.943-22.088z" style="opacity:.5;fill:none;fill-opacity:1;stroke:#f0f0f5;stroke-width:.1;stroke-linecap:butt;stroke-linejoin:miter;stroke-miterlimit:4;stroke-dasharray:none;stroke-opacity:1"/><path d="m482.698 279.794 11.321-8.02-12.449 27.689zM658.163 110.043l21.954 12.977-4.382-28.63z" style="opacity:.5;fill:none;fill-opacity:1;stroke:#f0f0f5;stroke-width:.1;stroke-linecap:butt;stroke-linejoin:miter;stroke-miterlimit:4;stroke-dasharray:none;stroke-opacity:1"/><path d="m690.34 132.291-15.934 10.583 17.217 9.81 15.111-1.8-11.768-8.257z" style="fill:none;fill-opacity:1;stroke:#f0f0f5;stroke-width:.1;stroke-linecap:butt;stroke-linejoin:miter;stroke-miterlimit:4;stroke-dasharray:none;stroke-opacity:1"/><path d="m691.623 152.684-22.619 6.553 5.402-16.363zM674.406 142.874l15.934-10.583-10.223-9.27-9.667 8.9 3.956 10.953M657.726 114.282l.437-4.24 21.954 12.978-9.667 8.9zM647.809 255.637l-7.997-14.423-10.997 10.154zM619.793 261l-14.449-7.059s-.801 17.917-.166 18.119c.635.201 14.48 1.395 14.48 1.395zM671.16 280.736l-12.118-15.815-8.985 21.935zM675.187 226.925l-5.61 24.899-15.7-2.605zM609.234 287.368l-4.795-3.538-2.814 6.136 7.558.798zM630.751 279.817l-8.757.259-4.218 20.778 13.314-8.39zM644.238 268.685l-8.805-9.293-9.093 10.76zM645.988 279.478l-7.97-1.957-3.238 10.318zM667.506 216.488l-1.818 12.188-5.12-9.953zM674.717 213.785l.47 13.14-7.681-10.437z" style="opacity:.5;fill:none;fill-opacity:1;stroke:#f0f0f5;stroke-width:.1;stroke-linecap:butt;stroke-linejoin:miter;stroke-miterlimit:4;stroke-dasharray:none;stroke-opacity:1"/><path d="m665.688 228.676-1.155 5.512 10.654-7.263-7.681-10.437z" style="opacity:.5;fill:none;fill-opacity:1;stroke:#f0f0f5;stroke-width:.1;stroke-linecap:butt;stroke-linejoin:miter;stroke-miterlimit:4;stroke-dasharray:none;stroke-opacity:1"/><path d="m664.533 234.188-7.143-4.82.404-3.859 7.894 3.167-1.155 5.512M664.533 234.188l-10.656 15.031 21.31-22.294z" style="opacity:.5;fill:none;fill-opacity:1;stroke:#f0f0f5;stroke-width:.1;stroke-linecap:butt;stroke-linejoin:miter;stroke-miterlimit:4;stroke-dasharray:none;stroke-opacity:1"/><path d="m664.533 234.188-6.116-1.841-4.54 16.872 10.656-15.031" style="opacity:.5;fill:none;fill-opacity:1;stroke:#f0f0f5;stroke-width:.1;stroke-linecap:butt;stroke-linejoin:miter;stroke-miterlimit:4;stroke-dasharray:none;stroke-opacity:1"/><path d="m658.417 232.347-1.027-2.978 7.143 4.819zM657.39 229.369l.404-3.86-16.878-4.459s-4.547 7.97-3.75 8.182c.795.211 14.057-.898 14.057-.898zM683.363 244.718s-7.802-3.351-8.14-3.43c-.339-.078 7.056-5.737 7.056-5.737l7.739-2.948-6.655 12.115M682.279 235.55l-7.092-8.625-.47-13.14 5.31.495 2.252 21.27" style="opacity:.5;fill:none;fill-opacity:1;stroke:#f0f0f5;stroke-width:.1;stroke-linecap:butt;stroke-linejoin:miter;stroke-miterlimit:4;stroke-dasharray:none;stroke-opacity:1"/><path d="m675.226 241.231-.04-14.306 7.093 8.626z" style="opacity:.5;fill:none;fill-opacity:1;stroke:#f0f0f5;stroke-width:.1;stroke-linecap:butt;stroke-linejoin:miter;stroke-miterlimit:4;stroke-dasharray:none;stroke-opacity:1"/><path d="m675.226 241.231-5.65 10.593 5.61-24.899.04 14.306M670.807 257.836l-1.23-6.012 5.65-10.593 8.136 3.487zM685.195 259.19l-14.388-1.354 12.556-13.118 1.832 14.472" style="opacity:.5;fill:none;fill-opacity:1;stroke:#f0f0f5;stroke-width:.1;stroke-linecap:butt;stroke-linejoin:miter;stroke-miterlimit:4;stroke-dasharray:none;stroke-opacity:1"/><path d="m685.195 259.19-8.738 11.648-4.462-6.403-5.923 4.092 4.735-10.691zM609.234 287.368l2.14-9.915 8.284-3.998 2.336 6.621-12.76 7.292M609.234 287.368l-.05 3.396 8.592 10.09 4.219-20.778z" style="opacity:.5;fill:none;fill-opacity:1;stroke:#f0f0f5;stroke-width:.1;stroke-linecap:butt;stroke-linejoin:miter;stroke-miterlimit:4;stroke-dasharray:none;stroke-opacity:1"/><path d="m609.234 287.368-4.795-3.538.69-11.748 6.245 5.37z" style="opacity:.5;fill:none;fill-opacity:1;stroke:#f0f0f5;stroke-width:.1;stroke-linecap:butt;stroke-linejoin:miter;stroke-miterlimit:4;stroke-dasharray:none;stroke-opacity:1"/><path d="m611.374 277.453 8.284-3.998-14.528-1.373zM626.34 270.151l-6.682 3.304 2.336 6.621 8.757-.26-4.41-9.665" style="opacity:.5;fill:none;fill-opacity:1;stroke:#f0f0f5;stroke-width:.1;stroke-linecap:butt;stroke-linejoin:miter;stroke-miterlimit:4;stroke-dasharray:none;stroke-opacity:1"/><path d="m635.433 259.392-15.64 1.607-.135 12.456 6.682-3.304zM635.433 259.392l-6.618-8.024-9.517.143.163 4.703 5.18 2.27z" style="opacity:.5;fill:none;fill-opacity:1;stroke:#f0f0f5;stroke-width:.1;stroke-linecap:butt;stroke-linejoin:miter;stroke-miterlimit:4;stroke-dasharray:none;stroke-opacity:1"/><path d="m635.433 259.392-10.793-.907-4.847 2.514zM628.815 251.368l10.997-10.154-11.911 3.626zM659.042 264.921l6.088-4.15-2.906-6.576-9.458 3.695z" style="opacity:.5;fill:none;fill-opacity:1;stroke:#f0f0f5;stroke-width:.1;stroke-linecap:butt;stroke-linejoin:miter;stroke-miterlimit:4;stroke-dasharray:none;stroke-opacity:1"/><path d="m666.072 268.527-.942-7.756-6.088 4.15 7.03 3.606 4.735-10.691-1.23-6.012-7.353 2.37 2.906 6.577.942 7.756" style="opacity:.5;fill:none;fill-opacity:1;stroke:#f0f0f5;stroke-width:.1;stroke-linecap:butt;stroke-linejoin:miter;stroke-miterlimit:4;stroke-dasharray:none;stroke-opacity:1"/><path d="m669.576 251.824-15.699-2.605-1.111 8.671 16.81-6.066M647.809 255.637l4.957 2.253-8.637 2.21-15.314-8.732z" style="opacity:.5;fill:none;fill-opacity:1;stroke:#f0f0f5;stroke-width:.1;stroke-linecap:butt;stroke-linejoin:miter;stroke-miterlimit:4;stroke-dasharray:none;stroke-opacity:1"/><path d="m644.13 260.1-15.315-8.732 6.618 8.024 8.696.708 3.921 13.819-3.812-5.234-8.805-9.293 8.696.708" style="opacity:.5;fill:none;fill-opacity:1;stroke:#f0f0f5;stroke-width:.1;stroke-linecap:butt;stroke-linejoin:miter;stroke-miterlimit:4;stroke-dasharray:none;stroke-opacity:1"/><path d="M648.05 273.919c-2.352.997-10.033 3.602-10.033 3.602l-11.677-7.37 17.898-1.466z" style="opacity:.5;fill:none;fill-opacity:1;stroke:#f0f0f5;stroke-width:.1;stroke-linecap:butt;stroke-linejoin:miter;stroke-miterlimit:4;stroke-dasharray:none;stroke-opacity:1"/><path d="m645.988 279.478 8.154-2.315-6.092-3.244-10.033 3.602zM654.142 277.163l4.9-12.242-4.021 2.175-6.97 6.823z" style="opacity:.5;fill:none;fill-opacity:1;stroke:#f0f0f5;stroke-width:.1;stroke-linecap:butt;stroke-linejoin:miter;stroke-miterlimit:4;stroke-dasharray:none;stroke-opacity:1"/><path d="m650.057 286.856-15.277.983 11.208-8.36 8.154-2.316zM650.057 286.856l4.84 12.902 9.894-9.909-5.094-2.723 11.463-6.39-21.103 6.12" style="opacity:.5;fill:none;fill-opacity:1;stroke:#f0f0f5;stroke-width:.1;stroke-linecap:butt;stroke-linejoin:miter;stroke-miterlimit:4;stroke-dasharray:none;stroke-opacity:1"/><path d="m671.16 280.736 9.042 11.57-15.411-2.457-5.094-2.723zM671.16 280.736l6.46-2.994 2.582 14.563-9.042-11.57" style="opacity:.5;fill:none;fill-opacity:1;stroke:#f0f0f5;stroke-width:.1;stroke-linecap:butt;stroke-linejoin:miter;stroke-miterlimit:4;stroke-dasharray:none;stroke-opacity:1"/><path d="m677.62 277.742 4.71-1.525-5.873-5.379-5.297 9.898zM676.457 270.838l-4.462-6.403-5.923 4.092 5.088 12.209z" style="opacity:.5;fill:none;fill-opacity:1;stroke:#f0f0f5;stroke-width:.1;stroke-linecap:butt;stroke-linejoin:miter;stroke-miterlimit:4;stroke-dasharray:none;stroke-opacity:1"/><path d="m666.072 268.527-7.03-3.606 12.118 15.815zM654.897 299.758l-14.294-.21 1.563-10.76 7.89-1.932zM634.78 287.84l-3.69 4.623-.339-12.646 7.266-2.296z" style="opacity:.5;fill:none;fill-opacity:1;stroke:#f0f0f5;stroke-width:.1;stroke-linecap:butt;stroke-linejoin:miter;stroke-miterlimit:4;stroke-dasharray:none;stroke-opacity:1"/><path d="m630.751 279.817-4.41-9.666 11.676 7.37zM631.09 292.463l11.076-3.674 7.89-1.933-15.276.983zM519.268 257.48 507.56 277.27l15.49 6.696-2.947-13.233 6.798-.797-7.634-12.458M507.561 277.271l4.855 11.99 10.634-5.294z" style="opacity:.5;fill:none;fill-opacity:1;stroke:#f0f0f5;stroke-width:.1;stroke-linecap:butt;stroke-linejoin:miter;stroke-miterlimit:4;stroke-dasharray:none;stroke-opacity:1"/><path d="m523.05 283.967 3.852-14.03-6.798.797zM590.402 280.52l11.223 9.446-10.09 8.592-4.985-4.008 3.852-14.03M660.567 218.723l-9.672-7.082 6.899 13.868 7.894 3.167zM494.02 271.773s21.508 16.418 18.396 17.487c-3.113 1.07-15.454 4.6-15.454 4.6l-2.943-22.087" style="opacity:.5;fill:none;fill-opacity:1;stroke:#f0f0f5;stroke-width:.1;stroke-linecap:butt;stroke-linejoin:miter;stroke-miterlimit:4;stroke-dasharray:none;stroke-opacity:1"/><path d="m507.561 277.271-13.542-5.498 18.397 17.487-4.855-11.989M85.537 8.474l-4.921 5.272 5.394 19.037-.473-24.31M38.359 17.645l7.02-12.74-14.918 2.95 7.898 9.79L26.8 21.002l3.66-13.147 7.899 9.79M198.162 263.013l14.912 39.307-13.503-18.769zM478.298 270.623l2.61 1.66 1.79 7.511-6.497 7.238z" style="opacity:.5;fill:none;fill-opacity:1;stroke:#f0f0f5;stroke-width:.1;stroke-linecap:butt;stroke-linejoin:miter;stroke-miterlimit:4;stroke-dasharray:none;stroke-opacity:1"/><path d="M476.201 287.032c2.274 5.678 5.37 12.43 5.37 12.43l1.127-19.668zM13.323 297.008l11.043-6.145-2.013-9.28zM24.366 290.863l21.69 2.97-9.412-9.52-12.278 6.55M99.071 298.593l16.761-2.995-2.365-11.81-7.859.622z" style="opacity:.5;fill:none;fill-opacity:1;stroke:#f0f0f5;stroke-width:.1;stroke-linecap:butt;stroke-linejoin:miter;stroke-miterlimit:4;stroke-dasharray:none;stroke-opacity:1"/></svg>