<svg xmlns="http://www.w3.org/2000/svg" width="120" height="120" viewBox="0 0 31.75 31.75"><path d="M1.993 30.079A2.673 2.673 0 0 1 .47 28.797l-.172-.322V3.398l.178-.335A2.73 2.73 0 0 1 1.701 1.91l.43-.199H29.389l.363.157c.505.218.998.664 1.257 1.14l.213.39v25.078l-.185.349c-.24.452-.81.977-1.282 1.18l-.367.158-13.534.013c-13.07.012-13.545.009-13.86-.096zm12.81-6.375.97-1.193h3.875l2.61-2.4 2.608-2.4V6.976l-8.456.014-8.457.015-.647 1.513-.648 1.513-.002 6.24-.002 6.24h4.553v2.386h2.627zm-1.636-2.459v-1.178H9.309V8.838h13.534v8.29l-1.597 1.47-1.596 1.47H15.729l-1.281 1.177-1.281 1.178zm2.592-7.083v-2.415H13.8V16.576h1.96zm3.922 0v-2.415h-2.024V16.576h2.024z" style="display:inline;fill:#a5101f;fill-opacity:1;stroke-width:.0606602"/></svg>