<svg xmlns="http://www.w3.org/2000/svg" width="120" height="120" viewBox="0 0 31.75 31.75"><path d="M16.116 1.683A14.464 14.464 0 0 0 1.653 16.147a14.464 14.464 0 0 0 14.463 14.464A14.464 14.464 0 0 0 30.58 16.147 14.464 14.464 0 0 0 16.116 1.683Zm-4.839 8.607h9.679a3.438 3.438 0 0 1 3.438 3.438v4.838a3.438 3.438 0 0 1-3.438 3.438h-9.679a3.438 3.438 0 0 1-3.438-3.438v-4.838a3.438 3.438 0 0 1 3.438-3.438zm2.738 3.453a.182.182 0 0 0-.171.182v4.453c0 .133.139.221.26.163l4.526-2.158a.182.182 0 0 0 .004-.327l-4.526-2.293a.18.18 0 0 0-.093-.02z" style="display:inline;fill:#a5101f;fill-opacity:1;stroke-width:.0564985"/></svg>